<svg width="174" height="147" viewBox="0 0 174 147" fill="none" xmlns="http://www.w3.org/2000/svg">
<path d="M42.7701 64.6521C42.6701 64.2655 42.4601 63.9131 42.1901 63.6516V61.7187C42.8001 61.1161 43.5201 61.5481 44.2001 61.4231C44.4001 61.6277 44.6201 61.8324 44.8501 62.0598H46.0101C46.2101 61.8551 46.4201 61.6505 46.6301 61.4572C46.8401 61.6505 47.0401 61.8551 47.3201 62.1166C47.5401 60.7068 48.5401 59.6721 49.9301 59.2173C49.4201 58.6261 48.8901 58.9672 48.3701 58.8307C48.1401 58.5579 47.8701 58.2395 47.5501 57.8529V56.534C48.4501 56.0451 48.6301 54.8058 49.3201 53.9303V52.0543C49.9001 51.429 50.4601 50.815 51.0501 50.1783V47.0743C51.5301 46.3769 51.5401 45.5735 51.0801 44.6639C51.1901 44.2546 51.3901 43.9362 51.6701 43.6406C51.6901 43.3109 51.4601 42.8333 51.1101 42.3444V40.4798C51.3201 40.1955 51.4701 39.9795 51.6201 39.7748C51.3501 39.4792 51.1401 39.2518 50.8601 38.9562C49.4701 40.025 47.8001 40.241 45.9101 40.0818C45.7501 39.4224 45.5201 38.8766 45.1301 38.4218C45.1301 37.8874 45.1301 37.3531 45.1301 36.7959C46.0401 34.1581 47.3501 34.1581 49.5901 34.34C49.7801 34.5447 49.9201 34.7039 50.1301 34.9313C50.3101 34.7835 50.5001 34.6129 50.7501 34.4083C50.9201 34.5674 51.1201 34.738 51.3701 34.9654H52.3901C53.4201 36.091 54.3901 37.1484 55.4001 38.2513C55.6801 38.0011 55.8801 37.8192 56.1201 37.6032C57.4301 37.1939 57.7301 38.4787 58.9201 38.8994C60.2901 37.7965 61.3401 36.2274 62.7001 34.9995C63.2301 34.9768 63.3001 35.2383 64.1001 35.6476C64.5001 35.6476 65.7101 35.6476 66.3301 35.6476C66.4101 35.3179 66.4801 35.0222 66.6601 34.2605C67.0001 33.9194 67.6501 33.2713 68.2501 32.6687V30.9064C67.9101 30.4629 67.6701 30.1332 67.4301 29.8262C67.1701 30.065 66.9701 30.2583 66.6801 30.5198C66.5901 30.1446 66.5201 29.849 66.4401 29.4738C68.7101 29.3259 66.6901 26.3698 69.3101 27.3931C69.4301 27.7683 69.5601 28.1435 69.6701 28.4846C69.9201 28.5073 70.1101 28.5187 70.3301 28.5414C70.5301 28.3368 70.7501 28.1207 70.9601 27.9161C71.2801 28.5073 71.6101 29.1099 71.7801 29.4283C72.4601 30.1559 73.1801 29.4738 73.6201 30.1218C74.0601 30.7699 74.6701 30.4402 75.2201 30.3833C75.3267 29.8376 75.2101 29.3184 74.8701 28.8257C75.1501 28.5187 75.4301 28.2231 75.7101 27.9161C75.9201 28.1207 76.1301 28.3254 76.3401 28.53C76.7101 27.6546 77.3501 26.9042 77.2001 25.6648C77.0201 25.4488 76.8201 25.2214 76.6201 24.994V21.7764C77.1101 21.242 77.6001 20.7076 78.0901 20.1846C78.3001 20.3892 78.5101 20.5939 78.7101 20.7985C78.8601 20.6394 79.0001 20.4802 79.1601 20.3096C79.6601 20.3437 79.8301 20.8668 80.2901 21.2533C79.6501 21.3784 79.1001 21.4807 78.5701 21.5831C78.2601 22.0833 78.4401 22.6064 78.4501 23.1976C78.6901 23.2772 78.9601 23.3568 79.2801 23.4591C80.0401 25.608 81.9601 26.1083 84.1201 25.8922C84.4801 25.4374 85.0901 25.1305 84.9501 24.3459C85.5901 24.0617 85.3801 23.2317 85.7801 22.7883C85.9801 22.7769 86.1701 22.7542 86.3601 22.7428C87.6801 24.2209 84.5901 24.0844 87.3001 26.2902V26.9951C88.1901 27.1884 88.7601 27.8137 89.3701 28.53H91.3301C92.0301 27.5636 92.9401 26.6085 94.0701 26.1196C94.4901 25.6421 95.4601 26.2788 95.8701 25.3579H99.6001C99.8501 25.7103 100.21 26.222 100.49 26.6085H101.86C102.08 26.3925 102.29 26.1765 102.51 25.9491H103.57C103.96 25.6535 104.26 25.4261 104.45 25.2896C105.89 25.6762 106.25 27.5977 106.36 28.837C106.14 29.0758 106 29.2236 105.8 29.4396V32.8279C107.02 33.385 108.32 32.9302 109.61 33.0553C110.16 32.4527 110.71 31.8387 111.31 31.1792C112.81 31.0314 113.82 31.0655 114.33 33.0325H116.72C117 34.1013 117.78 34.6243 118.24 35.5794C118.01 36.091 117.77 36.614 117.5 37.1825C118.41 37.6828 119.22 38.1148 120.01 38.5469C119.69 40.5594 117.91 41.6964 117.61 43.7088C117.88 43.9703 118.18 44.2546 118.61 44.6753C118.9 44.2205 119.22 43.7088 119.48 43.3109C120.16 43.47 120.68 43.1403 121.14 43.6292C120.98 43.8453 120.82 44.0613 120.63 44.3114C120.79 44.5161 120.97 44.7321 121.17 44.9822V46.2443C120.98 46.4603 120.78 46.6991 120.58 46.9379V47.6314C120.25 47.7565 119.9 47.8816 119.49 48.0407C119.46 48.3022 119.43 48.5865 119.41 48.8594C119.9 49.3028 120.57 49.0868 121.04 49.371C121.37 49.6325 121.64 49.8827 122.07 49.8031C122.73 50.8832 124.05 51.0538 124.76 52.0998V53.4414C125.01 53.5324 125.27 53.6347 125.64 53.7711C125.87 54.2259 126.16 54.8058 126.41 55.2947C126.2 55.6813 126.02 56.0224 125.76 56.5113C126.3 56.9433 126.77 57.3299 127.13 57.6142V59.115C127.34 59.3537 127.53 59.5925 127.74 59.8313V61.0933C128.12 61.6391 128.66 61.3094 129.21 61.4231C129.81 62.1394 130.47 62.9353 131.27 63.879V66.9488C130.84 67.3581 130.32 67.8357 129.66 68.461H127.44C127.15 68.8021 126.82 69.1887 126.55 69.507C126.42 70.4166 127.13 70.6213 127.49 71.0988H128.64C129.17 71.8151 128.61 72.7702 129.48 73.3387C129.57 73.4069 129.49 73.748 129.49 73.9754C129.06 74.487 128.24 74.3961 127.88 75.101C127.52 75.7946 126.55 75.4648 126.24 76.238C125.65 76.238 125.05 76.238 124.46 76.238C124.18 76.6587 123.66 76.8633 123.55 77.5342C123.75 77.9094 123.97 78.3414 124.25 78.8872C124.03 79.1942 123.8 79.5125 123.49 79.9446C123.61 80.2288 123.76 80.5927 123.71 80.479C124.49 81.6273 123.77 82.5937 124.43 83.31C124.85 82.878 125.26 82.4573 125.69 82.0139H129.82C130.19 81.6159 130.54 81.2407 130.92 80.82C131.35 80.7746 131.82 80.7177 132.26 80.6609C132.66 80.2061 132.08 80.1833 132.06 80.0128C131.74 79.2283 131.89 78.5006 131.93 77.7843C132.21 77.4773 132.49 77.1703 132.77 76.8747C133.46 76.8747 134.16 76.8747 134.85 76.8747V78.4665C134.66 78.6939 134.46 78.9213 134.28 79.1373C135.33 79.7627 134.3 80.82 135.39 81.2521V78.5916C135.67 78.2391 135.84 78.0231 136.07 77.7275C135.54 77.5683 135.46 76.8292 134.85 76.8747V75.9083C134.57 75.6126 134.29 75.317 133.89 74.885C133.59 75.408 133.29 75.9424 133.12 76.238H131.58C131.09 75.7036 130.6 75.1806 130.1 74.6348V73.3614C131.19 71.7696 132.67 70.7577 134.57 71.0874C135.02 71.5991 135.49 72.1448 136 72.7133C136 72.8611 136.02 73.0658 136.04 73.2818C136.69 73.6343 137.4 73.9185 137.8 74.6576C137.033 75.931 136.673 77.2727 136.72 78.6825C136.97 78.7394 137.24 78.8076 137.59 78.8872C138 79.342 138.48 79.8764 138.98 80.4335C138.8 80.6381 138.61 80.8655 138.42 81.1043C138.42 81.4113 138.42 81.7296 138.42 82.0594C137.47 82.2072 136.26 81.7183 135.49 82.3209V83.7421C135.8 84.0605 136.07 84.3447 136.4 84.6858C136.54 84.2537 136.66 83.8785 136.78 83.5033C137.54 83.31 138.19 82.969 138.42 82.0594H139.97C140.08 82.4118 140.2 82.787 140.34 83.2305C140.57 83.2873 140.84 83.3442 141.2 83.4237C141.3 83.7307 141.42 84.1059 141.55 84.5039C142.06 84.4584 142.24 83.9468 142.55 83.6625C142.37 83.4351 142.19 83.2191 142.01 82.9917C142.43 82.4687 142.96 82.8098 143.44 82.6961C143.85 82.2754 144.27 81.8433 144.66 81.434H146.41C146.87 81.9229 147.29 82.1958 147.91 82.2754V83.0599C149 83.6511 149.05 85.1633 150 85.9251C150.3 87.2327 151.35 87.9035 152.07 88.8472V90.132C151.78 90.4503 151.5 90.7459 151.2 91.0757H150.03C149.55 90.5185 149.6 89.518 148.73 89.2337C148.3 89.6203 148.6 90.2002 148.49 90.8028C149.27 91.4054 150.09 92.0307 150.91 92.6674C150.55 93.054 150.27 93.361 150.38 93.2473C149.53 93.7703 149.14 94.0091 148.55 94.3729C148.2 93.9977 147.79 93.5543 147.28 92.9858C147.09 93.1109 146.78 93.3269 146.38 93.5884H144.45C144.56 92.838 145.16 92.6106 145.46 92.1444C145.12 91.4622 144.78 90.7687 144.43 90.0638C144.56 89.9046 144.76 89.6772 144.94 89.4612V87.5169C144.45 86.9711 144.37 87.7329 144.03 87.8353C143.62 87.858 143.15 87.8807 142.59 87.9148V90.2911C142.23 90.3707 141.96 90.4276 141.64 90.4958C141.15 91.5759 140.81 92.7016 139.23 92.3718C139.1 92.0876 138.88 91.5987 138.66 91.1098C138.58 91.2007 138.49 91.2803 138.41 91.3713V89.4043C137.69 88.9836 136.95 89.1087 136.21 89.2451C136.07 89.6658 135.95 90.0296 135.79 90.5527C135.55 89.9842 135.36 89.5635 135.21 89.211C134.46 89.6431 133.73 90.0637 133.07 90.4503C132.42 90.3139 132.02 89.1769 131.31 90.132C131.94 90.8142 132.57 91.4964 133.2 92.1785C134.11 92.3718 134.8 93.2928 135.82 93.0881C136.25 93.5315 135.94 94.1001 136.07 94.7027C136.36 94.805 136.7 94.9301 137.04 95.0551C137.49 95.7828 137.12 96.9766 137.23 97.8066C136.76 98.2955 136.5 98.7389 136.46 99.4325H134.51C134.1 98.9436 133.64 98.3865 133.1 97.7384V96.5673C132.27 96.2944 131.63 95.7146 131.04 94.9755C130.83 95.1688 130.63 95.3507 130.39 95.5668H129.26C129.04 95.7942 128.82 96.0102 128.61 96.2148C128.4 95.9988 128.19 95.7828 128 95.6009H126.83C126.59 95.8169 126.39 96.0102 126.19 96.1921C125.81 95.7714 125.46 95.3962 125.1 95.0096C124.42 95.2598 124.87 95.8737 124.71 96.374C125.06 97.1131 125.74 97.5565 126.19 98.0909C126.54 98.1932 126.81 98.2728 127.21 98.3979C126.43 98.8186 125.73 99.0914 125.34 99.7964V100.444C126.07 100.786 126.84 101.547 127.89 101.377C128.31 101.547 128.41 102.139 128.87 101.945C128.97 102.355 128.92 102.855 129.44 102.423C129.28 102.275 129.12 102.127 128.87 101.945C129.13 101.286 129.47 100.695 130.36 100.74C131.12 101.888 131.38 103.332 131.23 105.015C130.43 105.413 129.68 105.777 128.94 106.141C128.93 106.368 128.84 106.641 128.91 106.8C129.57 107.3 129.42 108.335 130.06 108.835C129.67 109.358 129.14 109.017 128.62 109.131C128.43 108.71 128.24 108.278 128.04 107.835H127.37C126.88 108.858 125.8 109.074 124.95 109.665C124.7 109.142 124.65 108.506 124.18 108.108C124.46 107.801 124.74 107.505 125.03 107.187H125.7C125.77 106.277 126.71 105.766 126.46 104.822C125.33 104.287 123.86 104.742 122.66 104.594C121.73 106.107 120.66 104.64 119.45 104.594C119.36 105.663 119.39 106.596 119.42 107.528C123.38 108.904 118.94 110.632 119.39 113.304C118.81 113.952 118.08 113.497 117.43 113.622C116.82 112.917 115.64 113.031 115.33 111.894C117.32 111.257 116.75 112.337 117.15 109.836C116.5 109.79 116.12 109.756 115.63 109.722C114.5 108.483 112.92 107.869 111.45 107.05C111.1 107.471 110.83 107.789 110.5 108.176C110.79 110.279 110.25 111.621 108.22 112.28C108 111.917 107.69 111.394 107.48 111.064H106.47C106.41 110.723 106.34 110.359 106.3 110.097C107.1 109.176 107.37 110.2 107.92 110.37C107.99 110.075 108.06 109.79 108.13 109.483C106.66 108.494 104.72 108.119 103.73 106.55H102.43C102.28 106.709 102.14 106.868 101.92 107.096C101.53 107.141 101.06 107.187 100.6 107.244C99.0301 108.54 98.3401 110.359 96.9101 111.712C96.0701 111.485 95.4701 110.939 95.5701 109.802H92.9901C92.3401 110.564 91.6301 110.45 91.1501 109.779C90.4201 109.745 90.0501 108.938 89.3301 109.154C88.8101 109.938 89.1601 111.223 89.0701 112.019C89.3601 112.337 89.5001 112.485 89.6501 112.644V114.009C88.4101 114.191 88.5301 114.861 88.3001 116.078C87.8301 116.214 86.6401 116.169 85.8101 116.249C85.6001 116.453 85.3201 116.737 84.9801 117.09V118.579C85.3201 118.727 85.6601 118.875 86.0101 119.023C85.8401 119.353 85.6701 119.671 85.4301 120.137C85.6001 120.41 85.8201 120.74 86.0701 121.138C85.8201 121.354 85.5101 121.604 85.1201 121.933C84.1501 121.729 83.4801 122.82 82.5901 122.877C82.4301 124.06 83.3101 124.014 83.0901 125.128C82.7601 125.185 82.4901 125.231 82.2501 125.265C81.9301 124.924 81.6501 124.617 81.3601 124.298V122.752C80.8101 122.275 80.1301 121.672 79.5201 121.138V119.728C79.3401 119.534 79.2001 119.375 79.0501 119.216C79.2001 118.659 79.7501 118.784 80.0901 118.534C80.7101 117.965 81.3101 116.317 81.3601 115.248C81.5001 115.1 81.6401 114.941 81.8501 114.725C81.6001 114.168 81.3401 113.588 81.0801 113.008H80.4501C80.1001 113.736 79.9601 114.338 79.3101 114.896H76.9301C76.2001 115.691 75.5701 116.374 74.9201 117.079C75.3801 118.045 76.2701 118.682 75.9701 120.342C76.1801 120.592 76.3701 120.819 76.5801 121.081V123.696C76.3201 123.935 76.0301 124.219 75.6701 124.549C75.4501 124.333 75.1901 124.06 74.8601 123.741C75.0701 121.683 74.6701 119.853 73.6101 118.25C74.2301 116.828 74.7001 115.191 75.9301 114.066V112.61C75.7767 112.443 75.3067 112.36 74.5201 112.36C74.3001 112.144 74.0901 111.928 73.8701 111.701H69.1401C67.6701 109.95 68.7701 107.335 68.0001 105.277H66.1201C65.8801 104.196 64.9101 103.48 65.3401 102.423C64.8601 101.809 64.3301 102.15 63.7801 102.013C63.3901 101.297 61.1801 99.5348 60.5701 100.399C60.7601 100.626 60.9501 100.854 61.1401 101.081V102.366C60.8401 102.741 60.8401 102.741 58.3401 102.536C58.2201 102.161 58.1001 101.797 57.9501 101.354C57.4801 101.832 57.0601 102.252 56.6701 102.662H54.8901C54.3801 102.23 54.7301 101.65 54.5601 101.172C54.7801 100.911 54.9701 100.672 55.1901 100.41V97.8635C55.0101 97.6475 54.8101 97.4201 54.6001 97.1813C54.7301 95.3735 53.6101 94.1228 52.6201 92.9972H50.1301C49.7201 92.4173 48.9101 92.1444 49.3201 91.1325H47.4201C47.0301 90.8483 46.7201 90.6322 46.3601 90.3707C45.1601 91.0529 44.0401 91.9853 42.4301 91.7124C41.4001 90.8937 41.4401 89.2565 40.3301 88.8131C40.3701 87.5396 41.4601 87.4146 41.5801 86.4368C41.6701 85.6977 42.2401 85.0269 42.6301 84.2537C41.8601 83.492 42.0301 82.8439 43.0201 82.1162C43.1801 82.264 43.3801 82.4459 43.5601 82.6051C44.4401 81.6387 45.3401 80.6609 46.2801 79.6376C46.1901 78.8417 46.9701 78.5574 47.4201 77.898C47.5401 75.9424 47.2601 74.9759 46.6101 73.0317C46.5301 72.9748 46.0601 72.5883 45.7101 72.304V70.7805C46.6201 70.0187 46.2201 68.6202 46.3001 67.5628C46.0801 67.3013 45.8901 67.0625 45.6801 66.8124V65.5731C45.0701 64.925 44.2301 65.6299 43.6101 64.6294H42.7301L42.7701 64.6521ZM112.27 98.6935C113.49 98.6253 113.94 99.7281 114.68 100.467C114.49 100.672 114.35 100.82 114.15 101.036C115.18 101.786 114.23 103.071 114.99 103.969C116.13 104.14 116.84 103.446 117.6 103.071C117.38 102.65 117.16 102.23 116.94 101.809C117.03 101.729 117.12 101.65 117.21 101.581C116.57 100.945 115.92 100.297 115.24 99.6144V97.7839C114.4 97.6702 113.99 96.7378 113.17 96.9425C112.92 97.3518 112.36 97.5338 112.27 98.6935ZM120.94 98.1932H119.54C119.29 97.8294 118.95 97.3291 118.62 96.8402C118.05 97.3859 118.36 97.9544 118.22 98.6366C119.51 98.6366 118.12 100.16 119.97 100.342C120.06 100.763 120.12 101.058 120.19 101.377C120.53 101.354 120.8 101.343 121.04 101.331C121.34 100.558 121.62 99.8532 121.87 99.2051C121.49 98.7844 121.22 98.4774 120.95 98.1818L120.94 98.1932ZM130.14 91.3599C129.57 91.0416 128.98 91.0074 128.64 90.4844C128.44 90.6777 128.24 90.871 127.85 91.2462C127.55 90.7232 127.25 90.2229 126.99 89.7795C126.53 90.2116 126.25 90.4731 126.04 90.6664C126.32 91.2576 126.57 91.7806 126.78 92.2354C127.4 92.5424 127.97 92.8266 128.16 92.9289C128.93 92.315 129.52 91.8488 130.13 91.3599H130.14ZM119.4 88.2105C118.94 88.8244 118.65 89.2224 118.28 89.7226V90.7914C119.38 92.6106 119.77 91.2121 120.68 90.871C120.64 90.1433 120.61 89.734 120.6 89.4043C120.23 89.0405 119.95 88.7562 119.41 88.2105H119.4ZM112.35 80.6268C112.22 79.9559 112.5 79.4102 112.13 78.9554C111.58 78.8417 111.03 78.6029 110.54 79.1487V79.6262C110.87 80.1151 111.15 80.5244 111.35 80.82C111.75 80.7518 111.93 80.7177 112.35 80.6381V80.6268ZM103.95 77.2158C103.62 76.8406 103.37 76.545 103.28 76.4426C102.86 76.7155 102.45 76.9657 102.24 77.1021C102.14 78.1481 102.54 78.2505 103.12 78.1822C103.35 77.9094 103.61 77.6137 103.94 77.2158H103.95ZM124.24 93.3496C123.68 93.054 123.14 92.7698 122.54 92.4514C122.49 92.7698 122.44 93.054 122.39 93.3496C122.95 93.6453 123.49 93.9295 124.09 94.2479C124.14 93.9295 124.19 93.6453 124.24 93.3496ZM127.77 88.1763C128.1 88.472 128.29 88.9495 128.69 89.0405C129.01 88.7448 129.29 88.472 129.58 88.1991C128.95 87.6647 128.36 87.6533 127.77 88.1763ZM116.3 105.663C117.73 105.959 117.73 105.936 118.15 105.493C117.62 105.174 117.1 105.174 116.3 105.663ZM114.69 84.322C114.29 83.8558 113.9 83.8558 113.5 84.322C113.9 84.7881 114.29 84.7881 114.69 84.322ZM130.44 87.2213C130.87 86.7892 130.87 86.3572 130.44 85.9251C130.01 86.3572 130.01 86.7892 130.44 87.2213ZM110.44 98.6025C110.37 98.4661 110.3 98.3296 110.23 98.1818C109.92 98.3751 110.11 98.5684 110.23 98.8299C110.3 98.7617 110.36 98.6821 110.44 98.6025ZM118.76 104.413C118.69 104.276 118.62 104.14 118.55 103.992C118.24 104.185 118.43 104.378 118.55 104.64C118.62 104.572 118.68 104.492 118.76 104.413Z" fill="url(#paint0_linear_45_380)"/>
<path d="M105.76 130.79V133.36C105.15 133.974 104.43 133.542 103.74 133.667C103.48 133.394 103.2 133.11 102.89 132.792C103.03 131.109 101.49 129.96 101.58 128.175C101.44 128.005 101.24 127.766 101.02 127.505C101.42 127.3 101.82 127.107 102.22 126.902C101.84 126.493 101.49 126.117 101.06 125.64C101.04 125.322 101.02 124.912 100.99 124.412C100.38 123.866 99.6999 123.264 99.2399 122.854V118.545C98.8299 118.079 98.4299 117.624 98.0199 117.158V115.896C96.7699 114.839 97.6699 114.077 98.9499 114.281C99.1799 114.577 99.4399 114.907 99.7799 115.35V116.612C100.18 116.942 100.64 117.317 100.98 117.601C101.03 118.079 100.97 118.17 101.01 118.466C101.66 118.863 101.48 119.807 102.14 120.398V122.957C102.38 123.218 102.52 123.366 102.73 123.593V125.287C103.66 127.357 104.53 129.062 105.75 130.79H105.76Z" fill="url(#paint1_linear_45_380)"/>
<path d="M38.01 99.842V103.026C36.98 105.993 34.95 105.22 32.43 105.265C30.89 103.64 30.26 100.41 31.67 98.3525C32.01 98.2047 32.43 98.0114 32.27 98.0797C33.39 97.2724 34.28 97.6135 34.82 97.5453C36.44 98.0797 37.3 98.8642 38.01 99.842Z" fill="url(#paint2_linear_45_380)"/>
<path d="M164.02 88.165C164.23 88.4038 164.42 88.6312 164.6 88.8472C164.41 89.086 164.24 89.302 164.07 89.518C164.45 89.9273 164.79 90.3025 165.15 90.7005C164.75 91.4509 164.34 92.2013 163.92 92.9745H160.03C159.76 92.5197 159.34 91.8034 158.93 91.0871C158.88 91.1553 158.83 91.2235 158.79 91.2917C158.13 90.2912 158.09 89.0291 158.16 87.4714C158.59 87.1758 158.68 86.6756 158.77 86.1639C159.13 85.6523 160.12 86.3458 160.05 85.2998C162.25 84.9814 163.56 85.9251 165.21 86.8916V87.5738C164.84 87.7671 164.43 87.9717 164.02 88.1764V88.165Z" fill="url(#paint3_linear_45_380)"/>
<path d="M83.19 14.9885C83.22 15.7958 83.7 15.6594 84.26 15.5229C84.31 15.2614 84.36 14.9772 84.43 14.6247C85.36 13.59 85.56 15.1022 86.37 15.2159C86 15.9436 85.77 16.262 85.57 16.9214H84.61C84.43 18.1721 83.62 18.6837 82.77 19.6388C82.67 19.1385 82.61 18.8543 82.54 18.4904C81.92 17.831 81.37 16.9441 80.28 16.7395V14.6929C80.34 14.6133 80.51 14.3746 80.69 14.1017C80.31 13.283 79.91 12.4303 79.48 11.5093C79.99 11.0546 80.45 10.6566 80.81 10.3383V8.80332C81.04 8.70099 81.29 8.59867 81.7 8.41675C82.1 8.98524 82.51 9.57647 83.12 10.4633V12.5326C83.31 12.7941 83.48 13.0329 83.78 13.4763C83.71 13.9539 83.91 14.8293 83.22 15.0909C83.12 14.6815 83.17 14.1813 82.65 14.6133C82.81 14.7611 82.97 14.9089 83.19 14.9999V14.9885Z" fill="url(#paint4_linear_45_380)"/>
<path d="M134.9 52.077V50.6671C134.38 50.5648 133.83 50.4511 133.3 50.3374C132.84 48.9502 133.26 47.1197 133.12 45.6757C133.66 45.0845 134.15 44.5615 134.64 44.0271H136.39C136.75 44.4137 137.1 44.8002 137.45 45.1755C137.72 45.255 137.99 45.3233 138.25 45.4029C138.52 46.0396 138.8 46.6649 139.06 47.2789C138.66 48.4159 137.43 49.1322 136.61 50.2237V52.2475C135.95 52.3953 135.38 52.6568 134.9 52.077Z" fill="url(#paint5_linear_45_380)"/>
<path d="M35.6401 76.0447V74.0095C36.3101 73.1226 36.9401 74.1346 37.4401 74.6917V75.931C37.8301 76.6132 38.4401 76.8861 39.1501 77.0907V80.5017C38.8801 80.7973 38.6001 81.0929 38.3201 81.3999H37.7401C37.5301 81.6159 37.3101 81.832 37.1001 82.048C36.3201 82.048 35.5301 82.048 34.7401 82.048C34.2301 81.0588 33.7001 80.0696 33.8901 78.5915C34.5801 77.8298 34.5601 76.4426 35.6401 76.0333V76.0447Z" fill="url(#paint6_linear_45_380)"/>
<path d="M73.38 146.561C72.99 146.561 72.6 146.561 72.2 146.561C71.81 146.026 71.38 145.765 70.74 145.765V143.605C71.62 142.775 72.34 141.513 73.68 141.035C73.54 139.864 74.05 139.273 74.44 138.374C74.79 138.181 75.28 137.908 75.84 137.601C76.01 137.829 76.26 138.147 76.55 138.522C76.44 138.67 76.28 138.886 76.12 139.091C76.61 140.194 77.43 140.99 77.24 142.502C76.73 142.604 76.19 142.695 75.66 142.797C75.15 144.128 74.63 145.481 73.38 146.561Z" fill="url(#paint7_linear_45_380)"/>
<path d="M9.81003 62.6849C7.71003 62.7759 6.17003 63.0601 5.43003 60.4905C5.21003 60.2176 5.25003 59.3422 5.50003 59.0465C6.15003 56.6702 7.45003 56.8408 9.44003 56.9545C10.27 57.8641 11.02 58.6713 11.87 59.5923C11.87 60.2631 10.83 60.4678 10.74 61.1045C10.63 61.8549 10.2 62.1846 9.82003 62.6735L9.81003 62.6849Z" fill="url(#paint8_linear_45_380)"/>
<path d="M161.94 69.1657C161.69 68.6313 161.44 68.097 161.15 67.4944C161.25 67.3693 161.43 67.1419 161.63 66.8918V65.6524C162.18 65.2886 162.16 64.5951 162.48 64.0379C163.9 63.9583 165.09 63.9697 166.33 64.8907V68.2675C165.94 68.7337 165.41 68.404 164.94 68.5176C164.74 68.7223 164.53 68.9383 164.31 69.1544H161.94V69.1657Z" fill="url(#paint9_linear_45_380)"/>
<path d="M147.68 58.8422H147.08C146.81 58.5465 146.54 58.2396 146.14 57.8075C146.59 57.455 147.05 57.0912 147.38 56.8183V55.3175C148.02 54.7149 148.05 54.4989 148.17 53.396C149.04 55.0787 149.36 56.1589 149.16 57.8871C149.82 58.5806 150.46 59.1719 150.61 60.1838C151.04 59.4448 152.59 58.99 152.74 60.127C152.47 61.2298 151.32 61.5141 151.39 62.6852H149.47C149.27 62.4805 148.99 62.1963 148.63 61.8438C148.6 61.1957 148.56 60.4794 148.53 59.7745C148.24 59.4561 147.96 59.1605 147.68 58.8535V58.8422Z" fill="url(#paint10_linear_45_380)"/>
<path d="M31.3 85.7887C30.24 85.2543 29.42 84.8222 28.54 84.3788C28.71 84.1514 28.88 83.9354 29.08 83.6739V82.4573C29.49 81.9911 29.89 81.5363 30.3 81.0702V80.4448C30.88 80.1265 31.45 79.8081 32.02 79.4897C33.17 79.6148 33.09 81.0247 33.83 81.7069C33.65 81.9343 33.48 82.1503 33.28 82.4004C33.67 84.4698 32.61 85.0041 31.3 85.7887Z" fill="url(#paint11_linear_45_380)"/>
<path d="M30.5301 113.724C30.9301 113.304 31.5101 112.769 31.6301 111.882C32.2101 111.609 32.7901 111.337 33.4901 111.007C33.9301 111.928 34.6301 112.735 34.4501 113.986C33.5801 114.588 33.9201 115.657 33.8401 116.646C33.1601 116.737 32.5701 117.317 31.9501 117.579C31.1601 117.078 30.8001 116.044 29.8401 116.112C30.0401 115.43 30.2201 114.804 30.5301 113.724Z" fill="url(#paint12_linear_45_380)"/>
<path d="M42.04 120.978C42.42 120.171 42.66 119.648 42.95 119.023C43.65 118.659 44.38 118.011 45.54 118.181C45.85 118.579 46.22 119.057 46.45 119.364C46.94 119.489 47.2 119.557 47.48 119.637C48.07 121.945 45.83 121.74 44.98 123.298C43.08 123.889 43.05 122.024 42.03 120.978H42.04Z" fill="url(#paint13_linear_45_380)"/>
<path d="M66.25 118.83H70C70.07 118.147 70.12 117.636 70.17 117.147C70.78 116.59 71.5 117.124 72.15 116.794C72.44 117.17 72.69 117.488 73.03 117.92C71.41 119.421 71.14 121.365 68.89 122.138C68.63 121.945 68.33 121.718 67.95 121.422H66.8C66.6 121.138 66.36 120.808 65.94 120.24C65.92 120.012 65.87 119.114 66.24 118.818L66.25 118.83Z" fill="url(#paint14_linear_45_380)"/>
<path d="M146.74 7.85958C146.74 7.85958 146.52 7.79136 146.27 7.71177V6.23369C146.43 6.01766 146.59 5.80164 146.75 5.59698C146.56 5.39232 146.42 5.24451 146.24 5.03986V3.19794C146.04 2.93643 145.86 2.70903 145.67 2.4589V0.753418C147.14 2.03821 148.98 2.01547 150.36 3.11835C150.34 3.34575 150.33 3.5504 150.31 3.75506C149.92 3.99383 149.68 4.08479 149.19 4.24397C149.36 4.48273 149.51 4.68739 149.57 4.77835C148.7 5.72205 147.83 6.66575 146.74 7.84821V7.85958Z" fill="url(#paint15_linear_45_380)"/>
<path d="M40.9901 44.0386C40.9101 43.2768 40.3801 41.9693 39.8101 41.0597V39.1382C41.3601 37.9785 42.2301 38.1149 43.9001 39.0472V41.8101C43.6301 42.1057 43.3501 42.4013 43.0801 42.7083H42.4101C42.3101 43.0494 42.2001 43.4246 42.0401 43.9249C41.7301 43.959 41.3601 43.9931 41.0001 44.0272L40.9901 44.0386Z" fill="url(#paint16_linear_45_380)"/>
<path d="M106.1 126.504C105.56 125.97 105.07 125.47 104.58 124.981C104.8 124.719 105 124.48 105.2 124.242V122.991C106.27 122.07 106.7 120.728 107.18 119.387C107.77 120.023 108.26 120.558 108.74 121.081C108.54 121.308 108.35 121.536 108.15 121.763C108.02 122.798 109.05 123.025 109.38 123.878C109.29 124.082 109.1 124.583 109.08 124.571C108.29 124.264 108.05 125.629 107.27 125.276C106.87 125.697 106.46 126.129 106.1 126.504Z" fill="url(#paint17_linear_45_380)"/>
<path d="M59.4699 124.048C58.7899 123.673 58.2199 123.355 57.6399 123.036V122.309C57.9399 122.195 58.2799 122.07 58.7599 121.888C59.0899 120.887 58.1099 118.511 59.8799 118.807C60.5899 118.738 60.9699 117.761 61.7199 118.386V122.445C61.4599 122.729 61.1799 123.036 61.3099 122.9C60.4299 123.457 60.0399 123.696 59.4699 124.048Z" fill="url(#paint18_linear_45_380)"/>
<path d="M1.66 60.7864H3.25C3.52 61.082 3.79 61.389 4.1 61.7414V64.3224C3.89 64.5612 3.63 64.8682 3.32 65.232H1.31C1.03 64.7772 0.6 64.0836 0 63.0945V61.7301C0.52 61.4345 1 61.1616 1.66 60.7864Z" fill="url(#paint19_linear_45_380)"/>
<path d="M52.5999 105.425C53.0499 105.675 53.53 105.936 54.02 106.209C54.03 106.414 54.05 106.618 54.07 106.982C54.4399 107.312 54.88 107.71 55.25 108.04V109.484C54.98 109.779 54.7 110.075 54.38 110.416H53.27C53.04 110.632 52.83 110.825 52.61 111.03C52.23 110.609 51.71 110.45 51.2 110.257C51.04 109.54 50.86 108.824 51.63 108.267V106.175C51.9 105.97 52.2799 105.675 52.5999 105.425Z" fill="url(#paint20_linear_45_380)"/>
<path d="M32.6299 55.6698C32.8399 55.2605 33.0499 54.8398 33.3399 54.2827C33.1499 53.9985 32.9399 53.6801 32.6899 53.3049C32.9399 53.0775 33.2299 52.816 33.5399 52.5317C34.0099 52.8842 34.5799 53.1571 35.3999 53.0206C35.6999 53.4413 36.0599 53.9302 36.3399 54.3282H37.6699C38.0099 55.0786 38.0099 55.0786 37.9399 56.0337C37.5399 56.4998 37.0199 56.1587 36.5599 56.2724C36.3499 56.0564 36.1399 55.8404 35.9299 55.6243H34.6899C34.5799 55.9654 34.4699 56.3293 34.3399 56.75C33.3499 57.2843 33.0499 56.4202 32.6299 55.6698Z" fill="url(#paint21_linear_45_380)"/>
<path d="M65.9601 110.12C66.1501 110.347 66.3501 110.575 66.5401 110.791C66.6701 111.598 66.0201 111.871 65.6801 112.348C64.7101 112.201 64.4901 113.315 63.6601 113.701C62.9701 113.554 62.4801 113.042 62.3201 112.087C63.1701 111.632 63.9701 111.189 64.8901 110.7C64.6301 110.131 64.3901 109.608 64.1301 109.051C64.4901 108.278 65.1601 107.835 65.6801 107.243C65.9701 107.55 66.2401 107.857 66.5401 108.176V109.461C66.3601 109.665 66.1601 109.893 65.9701 110.12H65.9601Z" fill="url(#paint22_linear_45_380)"/>
<path d="M35.3399 84.0037C36.0399 84.7769 37.2899 85.4591 38.3099 85.2885C38.6399 85.6524 38.9199 85.948 39.1999 86.255V87.5284C38.7199 88.0855 38.1699 88.0287 37.1399 87.2555H35.2799C34.9199 86.7553 34.4899 86.1754 33.8999 85.3568V84.2539C34.3599 83.7763 34.8699 84.1061 35.3299 83.9924L35.3399 84.0037Z" fill="url(#paint23_linear_45_380)"/>
<path d="M116.48 118.659V116.601C117.41 116.317 118.1 115.191 119.25 115.703C119.38 116.067 119.52 116.419 119.65 116.783C119.65 116.783 121.06 116.385 121.07 116.374C121.39 117.067 121.18 117.795 121.21 118.511C120.76 119 120.66 118.977 119.76 118.204H118.46C118.2 118.557 117.85 119.057 117.5 119.535C117.11 119.193 116.83 118.955 116.47 118.648L116.48 118.659Z" fill="url(#paint24_linear_45_380)"/>
<path d="M127.77 49.4962C128.05 49.1892 128.33 48.8936 128.64 48.5525H130.45C130.68 48.7913 130.96 49.0869 131.29 49.4166V51.4291C130.77 52.4637 129.59 52.5319 128.62 52.3387C128.34 52.0317 128.06 51.7247 127.78 51.4291C127.78 50.781 127.78 50.1329 127.78 49.4962H127.77Z" fill="url(#paint25_linear_45_380)"/>
<path d="M52.59 101.411C52.38 101.195 52.1799 100.99 51.9799 100.785C51.7599 101.001 51.5499 101.217 51.3699 101.388H50.11C50.03 101.115 49.95 100.831 49.95 100.842C51.02 99.6824 51.96 98.6592 52.99 97.5449C53.76 97.6927 54 98.7615 54.81 99.1708C54.45 100.058 54.02 100.524 53.84 101.399H52.5999L52.59 101.411Z" fill="url(#paint26_linear_45_380)"/>
<path d="M123.61 122.377C123.8 121.035 122.96 120.126 122.49 119.102C123.18 118.886 122.72 117.681 123.54 117.545C124.13 117.545 124.84 118.386 125.73 120.126C125.92 120.126 126.11 120.148 126.37 120.16C126.45 120.41 126.53 120.694 126.6 120.933C126.03 122.093 124.91 122.161 124.12 122.763C123.9 122.604 123.75 122.502 123.59 122.4L123.61 122.377Z" fill="url(#paint27_linear_45_380)"/>
<path d="M77.5101 129.779H76.2701C76.1601 129.415 76.0401 129.051 75.8901 128.573H74.0401C73.6701 128.164 73.3901 127.868 73.0701 127.527C73.1001 127.266 73.1401 126.982 73.1901 126.595H75.7201C75.9501 126.345 76.0901 126.197 76.2301 126.038C77.0801 126.333 77.7301 127.607 78.4001 128.153C78.5401 129.13 77.8301 129.324 77.5001 129.779H77.5101Z" fill="url(#paint28_linear_45_380)"/>
<path d="M77.25 133.553V135.566C76.84 136.157 76.56 136.566 76.28 136.976C75.28 136.657 74.84 135.816 74.25 135.145C74.74 133.826 75.24 132.553 76.41 131.802C76.66 132.326 76.91 132.837 77.25 133.553Z" fill="url(#paint29_linear_45_380)"/>
<path d="M112.75 113.292C113.21 114.907 115.1 115.236 113.27 116.84H111.34C110.87 115.737 111.42 114.543 110.51 113.827C110.58 113.019 111.13 112.837 111.37 112.439C111.76 112.678 112.15 112.917 112.75 113.292Z" fill="url(#paint30_linear_45_380)"/>
<path d="M11.27 84.2991C11.53 84.049 11.82 83.7647 12.18 83.4009H13.99C14.56 84.1172 14.1 85.2769 14.24 86.3002C14 86.5162 13.7 86.7777 13.23 87.187C13.09 87.187 12.71 87.2098 12.07 87.2553C11.91 86.971 11.67 86.5276 11.26 85.7999V84.2991H11.27Z" fill="url(#paint31_linear_45_380)"/>
<path d="M114.71 122.343V121.069C114.79 120.978 114.88 120.83 114.93 120.842C115.85 121.081 116.49 120.205 117.31 120.069C117.87 121.183 118.43 121.774 118.26 123.138C118.03 123.354 117.67 123.684 117.29 124.048C116.31 123.616 115.31 123.332 114.71 122.343Z" fill="url(#paint32_linear_45_380)"/>
<path d="M108.8 132.939C109.11 133.201 109.57 133.599 109.9 133.883V135.327C109.25 135.907 108.53 135.373 107.91 135.691C107.59 135.316 107.33 134.997 107 134.611V132.769C107.37 132.36 107.58 131.802 107.75 131.154H108.51C108.95 131.632 108.64 132.2 108.8 132.939Z" fill="url(#paint33_linear_45_380)"/>
<path d="M138.47 73.2592V71.9516C138.7 71.7697 139.09 71.4627 139.55 71.0989H141.23C141.69 72.0653 141.29 73.1 141.48 74.0209C140.74 74.5439 140.05 74.237 139.35 74.3279C139.12 74.0437 138.86 73.7253 138.48 73.2592H138.47Z" fill="url(#paint34_linear_45_380)"/>
<path d="M141.12 108.494H139.96C139.45 107.949 138.96 107.426 138.48 106.902V106.129C139 106.027 139.54 105.913 140.08 105.8C140.21 105.424 140.33 105.049 140.45 104.708C140.69 104.685 140.88 104.663 141.09 104.64C141.4 105.22 141.72 105.811 142.05 106.425C142.01 107.164 141.39 107.823 141.13 108.506L141.12 108.494Z" fill="url(#paint35_linear_45_380)"/>
<path d="M134.66 104.583C134.82 104.208 135 103.765 135.26 103.173C136.69 103.89 139.01 104.947 137.08 106.482C136.54 106.107 135.98 105.811 135.26 105.936C135.08 106.107 134.86 106.311 134.63 106.539C134.36 105.982 134.09 105.425 133.78 104.776C134.07 104.72 134.34 104.651 134.67 104.583H134.66Z" fill="url(#paint36_linear_45_380)"/>
<path d="M42.7701 64.652V66.926C42.5001 67.1988 42.2201 67.4945 41.9101 67.8014H40.6001C40.1301 67.0738 40.7901 66.0164 39.8701 65.573C40.1501 65.2432 40.4201 64.9362 40.6801 64.6406H42.7801L42.7701 64.652Z" fill="url(#paint37_linear_45_380)"/>
<path d="M41.28 36.2729H40.02C39.99 35.3519 39.13 34.9653 39.22 34.0216C39.44 33.7715 39.71 33.4645 40.02 33.1121H41.35C41.64 33.8056 41.91 34.431 42.17 35.0563C42.08 35.6589 41.55 35.8636 41.27 36.2842L41.28 36.2729Z" fill="url(#paint38_linear_45_380)"/>
<path d="M132.26 117.533H131.06C130.34 117.078 131.1 116.101 130.46 115.6C129.88 115.146 130.19 114.486 130.23 113.895C130.64 113.452 131.16 113.781 131.62 113.668C132.09 114.736 133.05 116.067 132.25 117.545L132.26 117.533Z" fill="url(#paint39_linear_45_380)"/>
<path d="M153.92 57.5119H151.18C150.64 56.6478 151.06 55.4995 150.94 54.5444C151.25 54.4421 151.43 54.3852 151.6 54.3284C152.53 54.8059 153.16 55.8519 153.91 56.5455V57.5006L153.92 57.5119Z" fill="url(#paint40_linear_45_380)"/>
<path d="M128.97 123.048C128.66 124.492 127.85 124.583 127.46 125.993C127.02 125.401 126.62 124.833 126.14 124.196C126.17 124.151 126.33 123.946 126.52 123.673C126.38 123.48 126.21 123.275 125.96 122.934C126.25 122.604 126.56 122.263 126.76 122.036C127.87 121.82 128.43 122.366 128.97 123.037V123.048Z" fill="url(#paint41_linear_45_380)"/>
<path d="M104.79 135.657H106.14C106.42 135.964 106.7 136.259 106.97 136.555V137.874C106.71 138.135 106.42 138.408 106.07 138.761H104.71C104.61 137.692 104.39 136.726 104.79 135.657Z" fill="url(#paint42_linear_45_380)"/>
<path d="M52.8699 130.688C52.7599 131.7 53.1299 132.758 52.6599 133.576H51.3099C51.0599 133.212 50.5899 132.974 50.3999 132.291C50.8199 131.564 51.4499 130.972 52.1299 130.37C52.3899 130.484 52.6399 130.586 52.8699 130.688Z" fill="url(#paint43_linear_45_380)"/>
<path d="M133.68 63.3559C133.58 63.299 133.34 63.1853 133.03 63.0261C133.28 61.8209 134.43 61.4002 134.54 60.1382H135.86C135.95 60.3883 136.05 60.6612 136.08 60.7522C135.25 61.6504 134.5 62.4576 133.68 63.3445V63.3559Z" fill="url(#paint44_linear_45_380)"/>
<path d="M49.9001 45.6303C49.0901 46.7559 48.4301 46.881 47.5801 45.6985V44.2432C48.1301 44.0044 48.6701 43.8566 49.0701 43.4246C49.5301 43.8566 49.2101 44.4251 49.3201 44.9595C49.5001 45.1755 49.7001 45.4029 49.9001 45.6417V45.6303Z" fill="url(#paint45_linear_45_380)"/>
<path d="M69.2201 113.668C69.4901 113.963 69.7601 114.259 70.0701 114.589V116.021C69.8401 116.169 69.4301 116.442 68.7601 116.885C69.0001 116.885 68.8101 116.885 68.6201 116.885C68.4268 116.673 68.3534 115.892 68.4001 114.543C68.6701 114.247 68.9401 113.952 69.2101 113.656L69.2201 113.668Z" fill="url(#paint46_linear_45_380)"/>
<path d="M142.63 35.3292C142.37 35.5908 142.09 35.875 141.65 36.3184C141.55 35.9546 141.45 35.5566 141.34 35.1587C140.69 34.8176 140.92 34.0786 140.85 33.3168C141.08 33.2145 141.32 33.1008 141.76 32.9075C142 33.3054 142.26 33.7375 142.64 34.3742V35.3292H142.63Z" fill="url(#paint47_linear_45_380)"/>
<path d="M47.15 52.4067C46.86 52.4067 47.05 52.4067 47.27 52.4067C47.69 53.1685 47.5199 53.9644 47.4399 54.7489C46.9999 55.1924 46.5 54.874 46.04 54.9763C45.53 54.6011 45.81 54.0213 45.7 53.305C46.01 53.1117 46.4199 52.8502 47.1399 52.4067H47.15Z" fill="url(#paint48_linear_45_380)"/>
<path d="M132.08 27.2224C131.8 27.6204 131.59 27.9387 131.37 28.2457C132.59 29.2804 131.69 30.0535 130.45 29.8375C129.95 29.0984 130.18 28.2684 130.23 27.4839C130.77 27.0405 131.38 27.3361 132.08 27.2224Z" fill="url(#paint49_linear_45_380)"/>
<path d="M126.36 127.937C126.61 128.21 126.82 128.437 127.13 128.767C127.15 129.074 127.17 129.483 127.21 130.211C126.96 130.381 126.55 130.643 126.13 130.916C125.98 130.756 125.7 130.449 125.4 130.131V128.767C125.64 128.562 125.95 128.289 126.35 127.948L126.36 127.937Z" fill="url(#paint50_linear_45_380)"/>
<path d="M126.34 76.8975C127.62 76.9998 126.87 77.989 127.77 78.5461C127.49 78.8076 127.2 79.0805 126.89 79.3761C126.46 78.9099 125.66 79.0577 125.39 78.3755C125.383 78.042 125.7 77.5493 126.34 76.8975Z" fill="url(#paint51_linear_45_380)"/>
<path d="M106.32 116.192C106.35 116.874 106.36 117.272 106.39 117.954C106.13 118.136 105.74 118.409 105.34 118.682C105.19 118.511 104.91 118.215 104.64 117.92V116.487C105.12 116.044 105.62 116.339 106.32 116.18V116.192Z" fill="url(#paint52_linear_45_380)"/>
<path d="M55.25 138.499C55.25 138.295 55.25 138.09 55.25 138.158C55.62 137.567 55.88 137.146 56.02 136.93C57.01 136.771 57.18 137.533 57.62 137.863C57.35 138.158 57.08 138.454 56.81 138.738C56.28 138.772 55.7 139.091 55.25 138.499Z" fill="url(#paint53_linear_45_380)"/>
<path d="M46.0201 20.6394C46.3401 21.0146 46.6401 21.3784 46.9001 21.6854C46.3401 22.288 45.8701 22.811 45.3901 23.3227C45.1401 23.0498 44.8601 22.7542 44.5701 22.4358C45.3701 21.7764 44.8101 21.0146 46.0201 20.6394Z" fill="url(#paint54_linear_45_380)"/>
<path d="M78.3901 16.8645V18.6041C77.9301 19.0816 77.4201 18.7519 76.9601 18.8656C76.3301 18.3767 76.8801 17.7059 76.6201 17.2738C77.1601 16.7053 77.6701 17.035 78.3901 16.8645Z" fill="url(#paint55_linear_45_380)"/>
<path d="M87.3999 125.344V123.605C87.8599 123.127 88.3699 123.457 88.8299 123.343C89.3899 123.843 89.0999 124.469 89.0399 125.06C88.6299 125.492 88.1099 125.162 87.3999 125.333V125.344Z" fill="url(#paint56_linear_45_380)"/>
<path d="M35.53 121.16C36.03 120.649 36.31 120.364 36.55 120.126C37.35 120 37.57 120.717 37.99 121.103C36.97 122.252 36.8 122.388 35.52 121.172L35.53 121.16Z" fill="url(#paint57_linear_45_380)"/>
<path d="M43.07 94.3162H43.65C44.23 94.8051 43.91 95.4304 43.88 96.0216C43.48 96.4764 42.97 96.1353 42.52 96.249C42.24 95.6957 42.4233 95.0514 43.07 94.3162Z" fill="url(#paint58_linear_45_380)"/>
<path d="M36.78 88.5173V90.1887C36.33 90.6776 35.82 90.3479 35.37 90.4616C34.33 89.3814 35.77 89.1768 35.82 88.5287H36.78V88.5173Z" fill="url(#paint59_linear_45_380)"/>
<path d="M150.91 43.6975V45.6986C150.54 46.0511 150.12 46.1307 149.89 45.7213C149.58 45.187 149 45.4598 148.68 45.1187C149.08 44.3229 150.01 44.4707 150.91 43.6975Z" fill="url(#paint60_linear_45_380)"/>
<path d="M153.09 73.6796C152.64 73.6796 152.26 73.6796 151.87 73.6796C151.26 73.2134 151.62 72.5654 151.62 71.9059C151.86 71.8377 152.12 71.7695 152.24 71.7354C152.69 72.1447 153.05 72.463 153.41 72.8041C153.28 73.168 153.18 73.4295 153.09 73.6796Z" fill="url(#paint61_linear_45_380)"/>
<path d="M116.92 29.178H117.97C118.24 29.4736 118.52 29.7806 118.78 30.0762V31.6566C118.44 31.6907 118.18 31.7135 117.95 31.7362C117.4 30.7698 117.89 29.9852 116.92 29.178Z" fill="url(#paint62_linear_45_380)"/>
<path d="M41.3901 83.3553H40.1101C39.5301 82.8664 39.8501 82.2411 39.8801 81.5589C40.1201 81.502 40.3801 81.4338 40.6301 81.377C41.0201 81.9454 41.8901 82.1842 41.3901 83.3553Z" fill="url(#paint63_linear_45_380)"/>
<path d="M55.5601 3.3799H54.3801C53.5601 2.70908 54.4801 1.98141 54.9101 1.44702H55.5501C56.0401 2.0951 56.0401 2.73182 55.5501 3.3799H55.5601Z" fill="url(#paint64_linear_45_380)"/>
<path d="M122.12 40.1384H123.3C124.12 40.8092 123.2 41.5369 122.77 42.0713H122.13C121.64 41.4232 121.64 40.7865 122.13 40.1384H122.12Z" fill="url(#paint65_linear_45_380)"/>
<path d="M23.3101 22.7655C23.2301 22.3335 23.1901 22.1402 23.1101 21.6854C23.4001 21.5035 23.8101 21.242 24.2301 20.9805C24.3301 21.0828 24.6001 21.3784 24.8901 21.6968V22.4699C24.4301 22.9247 23.9301 22.6177 23.3201 22.7655H23.3101Z" fill="url(#paint66_linear_45_380)"/>
<path d="M96.0699 117.636C96.4899 118.079 96.2599 118.67 96.1699 119.25C95.7099 119.534 95.0799 119.512 94.7499 120.171C94.6399 119.853 94.5399 119.591 94.3899 119.182C94.9499 118.67 95.5099 118.147 96.0699 117.624V117.636Z" fill="url(#paint67_linear_45_380)"/>
<path d="M143.36 49.4617C143.62 49.1206 143.86 48.8023 144.18 48.3816C144.24 49.5641 145.17 49.8028 144.93 50.9853C144.64 51.0421 144.38 51.0876 144.12 51.1445C143.87 50.5987 143.64 50.0871 143.36 49.4731V49.4617Z" fill="url(#paint68_linear_45_380)"/>
<path d="M86.1299 7.30249H87.1099C87.5399 7.80276 87.2499 8.34852 87.3599 8.89427C87.0299 9.1103 86.7499 9.81523 86.3199 9.69016C85.9899 9.00797 86.2299 8.2803 86.1299 7.30249Z" fill="url(#paint69_linear_45_380)"/>
<path d="M35.34 44.6978C35.06 44.0838 34.8 43.5039 34.54 42.9241C34.99 42.492 35.49 42.8786 35.9 42.6853C36.46 43.2424 36.21 43.8564 36.12 44.5386C35.88 44.5841 35.62 44.6409 35.34 44.6978Z" fill="url(#paint70_linear_45_380)"/>
<path d="M143.6 95.51C143.94 95.6578 144.19 95.7715 144.42 95.8625C144.42 96.1353 144.42 96.34 144.42 96.2377C144.02 96.8175 143.74 97.2269 143.45 97.6362C143.1 97.4884 142.86 97.3747 142.63 97.2837C142.63 97.0108 142.63 96.8062 142.63 96.9085C143.03 96.3286 143.31 95.9193 143.6 95.51Z" fill="url(#paint71_linear_45_380)"/>
<path d="M41.25 112.963C42.59 114.156 42.51 115.157 40.69 114.952C39.9 114.27 40.78 113.497 41.25 112.963Z" fill="url(#paint72_linear_45_380)"/>
<path d="M114.46 129.79H113.25C112.79 128.937 112.77 128.914 113.69 127.971C114.08 128.255 114.46 128.539 114.82 128.801C114.65 129.267 114.55 129.54 114.46 129.779V129.79Z" fill="url(#paint73_linear_45_380)"/>
<path d="M33.6801 24.5279C33.5801 24.6302 33.3101 24.9258 33.0201 25.2442H32.3101C31.8901 24.7439 32.1701 24.1982 32.0601 23.6524C32.2901 23.5387 32.5301 23.425 32.9801 23.209C33.2001 23.6297 33.4401 24.0731 33.6801 24.5279Z" fill="url(#paint74_linear_45_380)"/>
<path d="M146.2 98.3637V99.1823C145.95 99.4325 145.67 99.7053 145.36 100.001C144.94 99.9214 144.76 99.4211 144.42 99.1482C144.69 98.8526 144.96 98.5684 145.32 98.1704C145.57 98.2273 145.9 98.2955 146.2 98.3637Z" fill="url(#paint75_linear_45_380)"/>
<path d="M167.05 69.234V68.1425C167.51 67.665 168.02 67.9947 168.61 67.8469C168.68 68.2108 168.74 68.5746 168.79 68.8475C168.27 69.3819 167.76 69.0635 167.05 69.234Z" fill="url(#paint76_linear_45_380)"/>
<path d="M41.6399 52.7933C41.6399 52.7933 41.3399 52.4636 40.9099 51.9974C41.2799 51.7473 41.6499 51.4858 42.1999 51.1106C42.0899 51.1106 42.2799 51.1106 42.5299 51.1106C42.6199 51.3494 42.7199 51.6222 42.8899 52.077C42.4899 52.3044 42.0699 52.5432 41.6399 52.782V52.7933Z" fill="url(#paint77_linear_45_380)"/>
<path d="M60.3099 34.9313C59.9399 34.5674 59.6699 34.2832 59.4199 34.0331C59.3599 33.3963 59.4599 32.9643 60.4199 33.078C60.5399 33.3054 60.7799 33.7488 61.0299 34.2036C60.9299 34.3059 60.6599 34.5788 60.3199 34.9313H60.3099Z" fill="url(#paint78_linear_45_380)"/>
<path d="M155.66 65.8801V66.9716C155.2 67.4492 154.69 67.1194 154.1 67.2673C154.03 66.9034 153.97 66.5396 153.92 66.2667C154.44 65.7323 154.95 66.0507 155.66 65.8801Z" fill="url(#paint79_linear_45_380)"/>
<path d="M100.51 128.448H98.7601C98.7001 128.119 98.6501 127.834 98.6001 127.573C99.1001 126.948 99.6701 127.243 100.3 127.334C100.35 127.596 100.4 127.88 100.5 128.448H100.51Z" fill="url(#paint80_linear_45_380)"/>
<path d="M139.12 66.8008V65.5501C139.58 65.0499 140.11 65.4819 140.67 65.1636C140.75 65.6411 140.81 65.9936 140.86 66.2778C140.34 66.8463 139.81 66.4143 139.12 66.8122V66.8008Z" fill="url(#paint81_linear_45_380)"/>
<path d="M25.24 52.4067C25.51 52.7024 25.78 52.9866 26.19 53.4414C25.83 53.7143 25.47 53.9758 25 54.3282H24.6C23.83 53.305 24.84 52.9752 25.24 52.4067Z" fill="url(#paint82_linear_45_380)"/>
<path d="M27.9099 63.1854V62.3668C28.1599 62.1166 28.4399 61.8437 28.7699 61.5254C29.2199 61.5595 29.2999 62.1962 29.7399 62.344C29.4199 62.6851 29.1599 62.9807 28.7899 63.3787C28.5399 63.3218 28.2099 63.2536 27.9099 63.1854Z" fill="url(#paint83_linear_45_380)"/>
<path d="M170.52 70.1211C170.18 70.519 169.93 70.8146 169.7 71.0875C169.12 71.1557 168.71 71.042 168.82 70.0074C169.03 69.8709 169.44 69.6094 169.86 69.3479C169.95 69.4502 170.21 69.7458 170.53 70.1211H170.52Z" fill="url(#paint84_linear_45_380)"/>
<path d="M164.33 62.0711H163.74C163.17 61.5709 163.47 60.9455 163.53 60.2633C163.77 60.2065 164.04 60.1496 164.29 60.0928C164.83 60.775 164.82 61.423 164.33 62.0711Z" fill="url(#paint85_linear_45_380)"/>
<path d="M147.53 50.6102C147.77 50.3714 148.03 50.1099 148.32 49.8257C148.4 50.0417 148.95 52.2816 148.89 52.5203C148.43 51.8723 148.02 51.3038 147.53 50.6102Z" fill="url(#paint86_linear_45_380)"/>
<path d="M62.6799 31.111C63.0199 31.6454 63.8499 31.8955 63.4599 32.9188C63.2399 32.9643 62.9799 33.0325 62.6999 33.0893C62.4399 32.771 62.1899 32.464 61.9099 32.1115C61.9699 31.6567 62.4399 31.4748 62.6899 31.0996L62.6799 31.111Z" fill="url(#paint87_linear_45_380)"/>
<path d="M117.09 29.1781C116.52 29.1099 115.95 29.3259 115.36 28.962C115.34 28.7233 115.32 28.439 115.29 28.1889C115.81 27.6773 116.35 27.8705 117 28.0411C117.03 28.3936 117.05 28.7801 117.08 29.1781H117.09Z" fill="url(#paint88_linear_45_380)"/>
<path d="M85.5701 16.9214C86.1801 17.001 86.4101 17.5581 86.8401 18.0811C86.6301 18.5245 86.3901 19.0134 86.1601 19.5023C85.0701 19.4796 85.7301 17.6945 85.5701 16.9214Z" fill="url(#paint89_linear_45_380)"/>
<path d="M169.19 95.0779C169.57 95.5327 169.29 96.0784 169.38 96.5673C168.99 97.0562 168.59 96.988 168.19 96.6128V95.9534C168.52 95.6577 168.71 95.1688 169.19 95.0779Z" fill="url(#paint90_linear_45_380)"/>
<path d="M75.18 8.01871C74.75 7.83679 74.51 7.74583 74.22 7.62076C74.78 7.23419 74.83 6.60885 75.05 6.07446C75.54 6.14268 75.7 6.65433 75.91 6.8135C75.67 7.21145 75.41 7.63213 75.18 8.01871Z" fill="url(#paint91_linear_45_380)"/>
<path d="M67.79 125.333V124.128C68.07 124.06 68.33 124.003 68.57 123.946C68.89 124.333 69.32 124.549 69.42 125.06C69 125.481 68.5 125.163 67.79 125.333Z" fill="url(#paint92_linear_45_380)"/>
<path d="M170.27 105.288C169.82 105.186 169.32 105.481 168.89 105.083C168.96 104.549 169.43 104.367 169.69 103.992C170.69 104.117 170.73 104.174 170.27 105.288Z" fill="url(#paint93_linear_45_380)"/>
<path d="M130.26 57.3413C128.49 58.2054 128.76 56.0224 129.96 55.7268C130.36 56.193 129.99 56.7501 130.26 57.3413Z" fill="url(#paint94_linear_45_380)"/>
<path d="M148.28 14.3406H147.56C147.5 14.0222 147.42 13.6584 147.36 13.3628C147.98 12.9193 148.51 12.9762 149.05 13.2491C149 13.7948 148.51 13.9654 148.27 14.3519L148.28 14.3406Z" fill="url(#paint95_linear_45_380)"/>
<path d="M136.39 62.7192H137.11C137.17 63.049 137.24 63.4014 137.33 63.8562C136.94 63.9358 136.68 64.004 136.44 64.0495C135.95 63.5833 135.96 63.1627 136.39 62.7192Z" fill="url(#paint96_linear_45_380)"/>
<path d="M17.16 51.0195V52.2702C16.86 52.3271 16.59 52.3839 16.19 52.4749C16.12 52.0769 16.06 51.7131 15.98 51.2697C16.37 51.1901 16.64 51.1332 17.15 51.0309L17.16 51.0195Z" fill="url(#paint97_linear_45_380)"/>
<path d="M129.25 78.8416H129.97C130.03 79.1713 130.1 79.5237 130.19 79.9785C129.8 80.0581 129.54 80.1263 129.3 80.1718C128.81 79.7057 128.82 79.285 129.25 78.8416Z" fill="url(#paint98_linear_45_380)"/>
<path d="M96.81 115.544V116.635C96.24 117.01 95.72 116.976 95.05 116.601C95.61 116.26 96.11 115.964 96.81 115.532V115.544Z" fill="url(#paint99_linear_45_380)"/>
<path d="M108.07 115.657H109.22C109.28 115.987 109.33 116.271 109.4 116.703C109.03 116.783 108.7 116.851 108.29 116.931C108.22 116.51 108.16 116.214 108.07 115.657Z" fill="url(#paint100_linear_45_380)"/>
<path d="M17.5101 82.7075H18.2301C18.2901 83.0372 18.3601 83.3897 18.4501 83.8445C18.0601 83.9241 17.8001 83.9923 17.5601 84.0378C17.0701 83.5716 17.0801 83.1509 17.5101 82.7075Z" fill="url(#paint101_linear_45_380)"/>
<path d="M151.84 51.1106H152.56C152.62 51.4403 152.69 51.7928 152.78 52.2476C152.39 52.3272 152.13 52.3954 151.89 52.4409C151.4 51.9747 151.41 51.554 151.84 51.1106Z" fill="url(#paint102_linear_45_380)"/>
<path d="M120.69 127.266V126.231C120.82 126.072 120.88 125.993 120.94 125.924C121.15 126.652 122.1 126.277 122.3 127.016C121.88 127.402 121.38 127.107 120.68 127.266H120.69Z" fill="url(#paint103_linear_45_380)"/>
<path d="M156.3 88.8358V89.6203C156 89.6885 155.67 89.7681 155.26 89.8591C155.18 89.4384 155.13 89.1541 155.08 88.8926C155.5 88.3583 155.9 88.381 156.3 88.8358Z" fill="url(#paint104_linear_45_380)"/>
<path d="M172.05 48.5297H171.33C171.27 48.2 171.2 47.8475 171.11 47.3927C171.5 47.3132 171.76 47.2449 172 47.1995C172.49 47.6656 172.48 48.0863 172.05 48.5297Z" fill="url(#paint105_linear_45_380)"/>
<path d="M109.04 30.4741H109.76C109.82 30.8038 109.89 31.1563 109.98 31.6111C109.59 31.6907 109.33 31.7589 109.09 31.8044C108.6 31.3382 108.61 30.9175 109.04 30.4741Z" fill="url(#paint106_linear_45_380)"/>
<path d="M157.49 33.9761V34.7947C157.19 34.8629 156.86 34.9425 156.45 35.0335C156.37 34.6128 156.32 34.3286 156.27 34.067C156.7 33.5327 157.09 33.6009 157.49 33.9761Z" fill="url(#paint107_linear_45_380)"/>
<path d="M41.5801 75.6125C41.5801 74.9758 42.1701 74.8166 42.4401 74.3391C42.7801 74.6347 43.1101 74.919 43.4701 75.226C42.7401 75.8058 42.1401 75.5216 41.5701 75.6125H41.5801Z" fill="url(#paint108_linear_45_380)"/>
<path d="M86.76 123.661V124.446C86.46 124.514 86.13 124.594 85.72 124.685C85.64 124.264 85.59 123.98 85.54 123.718C85.96 123.184 86.36 123.207 86.76 123.661Z" fill="url(#paint109_linear_45_380)"/>
<path d="M78.98 120.023V121.274C78.68 121.342 78.41 121.388 78.01 121.479C77.94 121.081 77.88 120.717 77.8 120.273C78.19 120.194 78.46 120.137 78.97 120.035L78.98 120.023Z" fill="url(#paint110_linear_45_380)"/>
<path d="M157.41 58.7169C157.14 58.7738 156.88 58.8306 156.63 58.8761C156.3 58.5236 156 58.1939 155.56 57.7164C156.05 57.614 156.31 57.5572 156.55 57.5117C156.84 57.9097 157.29 58.1143 157.4 58.7169H157.41Z" fill="url(#paint111_linear_45_380)"/>
<path d="M51.74 115.055V113.804C52.04 113.736 52.31 113.69 52.71 113.599C52.78 113.997 52.84 114.361 52.92 114.805C52.53 114.884 52.26 114.941 51.75 115.043L51.74 115.055Z" fill="url(#paint112_linear_45_380)"/>
<path d="M50.7899 96.2488H51.5099C51.5699 96.5785 51.6399 96.931 51.7299 97.3858C51.3399 97.4654 51.0799 97.5336 50.8399 97.5791C50.3499 97.1129 50.3599 96.6922 50.7899 96.2488Z" fill="url(#paint113_linear_45_380)"/>
<path d="M118.35 133.599H117.2C117.14 133.269 117.09 132.985 117.02 132.553C117.39 132.473 117.72 132.405 118.13 132.325C118.2 132.746 118.26 133.042 118.35 133.599Z" fill="url(#paint114_linear_45_380)"/>
<path d="M94.25 17.3306C93.57 17.467 93.24 17.5238 92.97 17.5807C92.59 17.1032 92.59 16.7507 92.88 16.3755C93.4 16.421 93.49 17.0463 94.25 17.3306Z" fill="url(#paint115_linear_45_380)"/>
<path d="M127.68 98.3069C127.8 97.5906 127.87 97.2381 127.94 96.7947C128.37 97.2267 128.66 97.5678 129.1 98.0226C128.59 98.125 128.33 98.1818 127.68 98.3069Z" fill="url(#paint116_linear_45_380)"/>
<path d="M144.78 14.4654C144.16 13.6809 144.61 13.1124 144.1 12.0664C145.01 12.9305 145.03 12.9305 144.78 14.4654Z" fill="url(#paint117_linear_45_380)"/>
<path d="M29.1001 93.6225C29.6301 93.7134 29.9601 93.7703 30.4001 93.8385C29.9401 94.3388 29.8101 94.6344 29.3001 94.8504C29.0901 94.3047 29.0801 94.4297 29.1001 93.6111V93.6225Z" fill="url(#paint118_linear_45_380)"/>
<path d="M78.4299 5.91542C78.9599 6.00638 79.2899 6.06323 79.7299 6.13145C79.2699 6.63172 79.1399 6.92734 78.6299 7.14337C78.4199 6.59761 78.4099 6.72268 78.4299 5.90405V5.91542Z" fill="url(#paint119_linear_45_380)"/>
<path d="M172.54 53.2027C172.45 52.7138 172.38 52.3613 172.33 52.0657C172.75 51.6336 173.08 51.6564 173.43 51.9406C173.36 52.475 172.89 52.6683 172.54 53.2027Z" fill="url(#paint120_linear_45_380)"/>
<path d="M61.6899 106.823C62.0699 106.562 62.4399 106.311 62.8499 106.039C62.8899 106.289 62.9399 106.641 62.9799 106.937C62.5299 107.312 62.2099 107.346 61.6899 106.823Z" fill="url(#paint121_linear_45_380)"/>
<path d="M73.2601 12.544C73.1801 12.0665 73.1201 11.714 73.0801 11.4184C73.5201 10.9977 73.8401 11.0091 74.1801 11.316C74.0901 11.8391 73.6401 12.0437 73.2601 12.544Z" fill="url(#paint122_linear_45_380)"/>
<path d="M59.41 110.438C59.13 110.438 58.86 110.438 58.58 110.438C58.07 110.097 58.1 109.688 58.44 109.222C58.9 109.506 59.32 109.813 59.41 110.438Z" fill="url(#paint123_linear_45_380)"/>
<path d="M153.88 63.3559C153.96 62.7761 154.01 62.4236 154.08 61.946C154.54 62.4463 154.81 62.5828 155.02 63.1399C154.52 63.3673 154.63 63.3787 153.88 63.3559Z" fill="url(#paint124_linear_45_380)"/>
<path d="M149.12 47.8815C149.2 47.3017 149.25 46.9492 149.32 46.4717C149.78 46.972 150.05 47.1084 150.26 47.6655C149.76 47.8929 149.87 47.9043 149.12 47.8815Z" fill="url(#paint125_linear_45_380)"/>
<path d="M32.1801 74.885C31.7601 73.532 32.9901 73.3956 32.5601 74.8623C32.4301 74.8623 32.3101 74.8737 32.1801 74.885Z" fill="url(#paint126_linear_45_380)"/>
<path d="M139.25 94.4639C139.75 94.805 139.77 95.1574 139.45 95.5326C138.66 95.3052 139.37 94.7822 139.25 94.4639Z" fill="url(#paint127_linear_45_380)"/>
<path d="M149.17 97.2153C149.57 96.7492 149.96 96.7492 150.36 97.2153C149.96 97.6815 149.57 97.6815 149.17 97.2153Z" fill="url(#paint128_linear_45_380)"/>
<path d="M172.65 65.937C173.08 66.3691 173.08 66.8011 172.65 67.2332C172.22 66.8011 172.22 66.3691 172.65 65.937Z" fill="url(#paint129_linear_45_380)"/>
<path d="M172.65 103.992C172.22 103.56 172.22 103.128 172.65 102.696C173.08 103.128 173.08 103.56 172.65 103.992Z" fill="url(#paint130_linear_45_380)"/>
<path d="M86.1601 20.7983C86.0501 21.2077 86.4501 21.7989 85.8101 22.0377C85.6368 21.4692 85.7535 21.0561 86.1601 20.7983Z" fill="url(#paint131_linear_45_380)"/>
<path d="M122.37 106.891C122.86 106.47 123.19 106.448 123.53 106.8C123.28 107.505 122.91 107.312 122.37 106.891Z" fill="url(#paint132_linear_45_380)"/>
<path d="M59.4099 110.439C59.7899 110.552 60.3299 110.132 60.5499 110.814C60.0232 111.003 59.6432 110.878 59.4099 110.439Z" fill="url(#paint133_linear_45_380)"/>
<path d="M61.01 21.2987C60.51 20.9577 60.49 20.6052 60.81 20.23C61.6 20.4574 60.89 20.9804 61.01 21.2987Z" fill="url(#paint134_linear_45_380)"/>
<path d="M86.1599 19.5025C87.0099 19.3547 86.9399 20.9692 86.1599 20.7873V19.5025Z" fill="url(#paint135_linear_45_380)"/>
<path d="M35.6399 60.4566C36.0399 59.9904 36.4299 59.9904 36.8299 60.4566C36.4299 60.9227 36.0399 60.9227 35.6399 60.4566Z" fill="url(#paint136_linear_45_380)"/>
<path d="M54.58 117.408C53.34 117.863 53.21 116.533 54.56 116.999C54.56 117.135 54.57 117.272 54.58 117.408Z" fill="url(#paint137_linear_45_380)"/>
<path d="M43.96 59.1719C44.36 58.7057 44.75 58.7057 45.15 59.1719C44.75 59.6381 44.36 59.6381 43.96 59.1719Z" fill="url(#paint138_linear_45_380)"/>
<path d="M134.82 121.285C133.58 121.74 133.45 120.41 134.8 120.876C134.8 121.012 134.81 121.149 134.82 121.285Z" fill="url(#paint139_linear_45_380)"/>
<path d="M122.42 124.628C122.187 125.068 121.807 125.193 121.28 125.003C121.5 124.31 122.04 124.742 122.42 124.628Z" fill="url(#paint140_linear_45_380)"/>
<path d="M123.31 127.209C123.74 127.641 123.74 128.073 123.31 128.505C122.88 128.073 122.88 127.641 123.31 127.209Z" fill="url(#paint141_linear_45_380)"/>
<path d="M155.11 52.7251C154.71 53.1913 154.32 53.1913 153.92 52.7251C154.32 52.2589 154.71 52.2589 155.11 52.7251Z" fill="url(#paint142_linear_45_380)"/>
<path d="M64.8801 133.565C64.4601 132.212 65.6901 132.076 65.2601 133.542C65.1301 133.542 65.0101 133.554 64.8801 133.565Z" fill="url(#paint143_linear_45_380)"/>
<path d="M60.5999 134.622C60.1999 135.088 59.8099 135.088 59.4099 134.622C59.8099 134.156 60.1999 134.156 60.5999 134.622Z" fill="url(#paint144_linear_45_380)"/>
<path d="M115.29 134.622C114.89 135.088 114.5 135.088 114.1 134.622C114.5 134.156 114.89 134.156 115.29 134.622Z" fill="url(#paint145_linear_45_380)"/>
<path d="M84.6799 140.103C85.1099 140.535 85.1099 140.967 84.6799 141.399C84.2499 140.967 84.2499 140.535 84.6799 140.103Z" fill="url(#paint146_linear_45_380)"/>
<path d="M93.4101 12.3279C92.9901 10.9749 94.2201 10.8385 93.7901 12.3052C93.6601 12.3052 93.5401 12.3165 93.4101 12.3279Z" fill="url(#paint147_linear_45_380)"/>
<path d="M30.96 42.8445C32.21 42.3897 32.33 43.72 30.98 43.2539L30.96 42.8445Z" fill="url(#paint148_linear_45_380)"/>
<path d="M41.0301 43.9248C40.7634 44.4251 40.3668 44.5805 39.8401 44.391C40.0701 43.7201 40.6101 44.1749 41.0301 43.9248Z" fill="url(#paint149_linear_45_380)"/>
<path d="M154.01 42.8445C155.25 42.3897 155.38 43.72 154.03 43.2539C154.03 43.1174 154.02 42.981 154.01 42.8445Z" fill="url(#paint150_linear_45_380)"/>
<path d="M50.2 46.5967C50.32 46.8468 50.51 47.0515 50.2 47.2448C50.08 46.9946 49.89 46.79 50.2 46.5967Z" fill="url(#paint151_linear_45_380)"/>
<path d="M146.71 53.2709C146.64 53.4073 146.57 53.5437 146.5 53.6915C146.19 53.4983 146.38 53.305 146.5 53.0435C146.57 53.1117 146.63 53.1913 146.71 53.2709Z" fill="url(#paint152_linear_45_380)"/>
<path d="M141.23 58.7511C141.11 58.6715 140.98 58.6033 140.85 58.5237C141.02 58.1826 141.21 58.3986 141.44 58.5237C141.37 58.5919 141.31 58.6715 141.23 58.7511Z" fill="url(#paint153_linear_45_380)"/>
<path d="M55.17 29.4054C55.1 29.5418 55.03 29.6783 54.96 29.8261C54.65 29.6328 54.84 29.4395 54.96 29.178C55.03 29.2462 55.09 29.3258 55.17 29.4054Z" fill="url(#paint154_linear_45_380)"/>
<path d="M169.97 68.1995C169.74 68.3246 169.55 68.5406 169.38 68.1995C169.61 68.0744 169.8 67.8584 169.97 68.1995Z" fill="url(#paint155_linear_45_380)"/>
<path d="M172.86 68.9385C172.78 69.0295 172.71 69.0977 172.65 69.1659C172.53 68.9158 172.34 68.7111 172.65 68.5178C172.72 68.6543 172.79 68.8021 172.86 68.9385Z" fill="url(#paint156_linear_45_380)"/>
<path d="M35.5501 28.7687C35.4801 28.9051 35.4101 29.0415 35.3401 29.1893C35.0301 28.9961 35.2201 28.8028 35.3401 28.5413C35.4101 28.6095 35.4701 28.6891 35.5501 28.7687Z" fill="url(#paint157_linear_45_380)"/>
<path d="M169.59 73.1226C169.71 73.2021 169.84 73.2704 169.97 73.35C169.8 73.691 169.61 73.475 169.38 73.35C169.45 73.2817 169.51 73.2021 169.59 73.1226Z" fill="url(#paint158_linear_45_380)"/>
<path d="M64.68 27.666C64.6 27.757 64.53 27.8252 64.47 27.8934C64.35 27.6433 64.16 27.4386 64.47 27.2454C64.54 27.3818 64.61 27.5296 64.68 27.666Z" fill="url(#paint159_linear_45_380)"/>
<path d="M131.76 27.3135C132 27.0065 132.14 26.836 132.28 26.6541C132.68 27.2225 132.22 27.1657 131.76 27.3135Z" fill="url(#paint160_linear_45_380)"/>
<path d="M131.84 25.5399C131.77 25.6763 131.7 25.8128 131.63 25.9606C131.32 25.7673 131.51 25.574 131.63 25.3125C131.7 25.3807 131.76 25.4603 131.84 25.5399Z" fill="url(#paint161_linear_45_380)"/>
<path d="M102.59 112.474C102.67 112.565 102.74 112.633 102.8 112.701C102.57 112.826 102.38 113.042 102.21 112.701C102.34 112.621 102.47 112.542 102.59 112.474Z" fill="url(#paint162_linear_45_380)"/>
<path d="M94.4799 113.349C94.2499 113.474 94.0599 113.69 93.8899 113.349C94.1199 113.224 94.3099 113.008 94.4799 113.349Z" fill="url(#paint163_linear_45_380)"/>
<path d="M77.2499 117.863C77.0199 117.988 76.8299 118.204 76.6599 117.863C76.8899 117.738 77.0799 117.522 77.2499 117.863Z" fill="url(#paint164_linear_45_380)"/>
<path d="M116.64 118.75C116.4 119.057 116.26 119.228 116.12 119.409C115.72 118.841 116.18 118.898 116.64 118.75Z" fill="url(#paint165_linear_45_380)"/>
<path d="M58.14 121.172C58.06 121.263 57.99 121.331 57.93 121.399C57.81 121.149 57.62 120.944 57.93 120.751C58 120.887 58.07 121.035 58.14 121.172Z" fill="url(#paint166_linear_45_380)"/>
<path d="M122.85 124.06C123.09 123.753 123.23 123.582 123.37 123.4C123.77 123.969 123.31 123.912 122.85 124.06Z" fill="url(#paint167_linear_45_380)"/>
<path d="M123.01 123.98C123.03 124.423 122.83 124.639 122.42 124.628C122.4 124.185 122.6 123.969 123.01 123.98Z" fill="url(#paint168_linear_45_380)"/>
<path d="M66.16 124.719C66.28 124.799 66.41 124.867 66.54 124.946C66.37 125.287 66.18 125.071 65.95 124.946C66.02 124.878 66.08 124.799 66.16 124.719Z" fill="url(#paint169_linear_45_380)"/>
<path d="M80.3 128.266C80.37 128.13 80.44 127.994 80.51 127.846C80.82 128.039 80.63 128.232 80.51 128.494C80.44 128.426 80.38 128.346 80.3 128.266Z" fill="url(#paint170_linear_45_380)"/>
<path d="M41.75 75.5444C41.51 75.8514 41.37 76.022 41.23 76.2039C40.83 75.6354 41.29 75.6922 41.75 75.5444Z" fill="url(#paint171_linear_45_380)"/>
<defs>
<linearGradient id="paint0_linear_45_380" x1="40.3301" y1="20.1846" x2="154.541" y2="23.7794" gradientUnits="userSpaceOnUse">
<stop stop-color="#FF6E05"/>
<stop offset="1" stop-color="#F83C27"/>
</linearGradient>
<linearGradient id="paint1_linear_45_380" x1="97.4209" y1="114.248" x2="105.951" y2="114.356" gradientUnits="userSpaceOnUse">
<stop stop-color="#FF6E05"/>
<stop offset="1" stop-color="#F83C27"/>
</linearGradient>
<linearGradient id="paint2_linear_45_380" x1="30.884" y1="97.53" x2="38.1694" y2="97.7272" gradientUnits="userSpaceOnUse">
<stop stop-color="#FF6E05"/>
<stop offset="1" stop-color="#F83C27"/>
</linearGradient>
<linearGradient id="paint3_linear_45_380" x1="158.135" y1="85.2368" x2="165.368" y2="85.4326" gradientUnits="userSpaceOnUse">
<stop stop-color="#FF6E05"/>
<stop offset="1" stop-color="#F83C27"/>
</linearGradient>
<linearGradient id="paint4_linear_45_380" x1="79.48" y1="8.41675" x2="86.527" y2="8.54482" gradientUnits="userSpaceOnUse">
<stop stop-color="#FF6E05"/>
<stop offset="1" stop-color="#F83C27"/>
</linearGradient>
<linearGradient id="paint5_linear_45_380" x1="133.078" y1="44.0271" x2="139.196" y2="44.1559" gradientUnits="userSpaceOnUse">
<stop stop-color="#FF6E05"/>
<stop offset="1" stop-color="#F83C27"/>
</linearGradient>
<linearGradient id="paint6_linear_45_380" x1="33.8506" y1="73.6594" x2="39.2707" y2="73.7608" gradientUnits="userSpaceOnUse">
<stop stop-color="#FF6E05"/>
<stop offset="1" stop-color="#F83C27"/>
</linearGradient>
<linearGradient id="paint7_linear_45_380" x1="70.74" y1="137.601" x2="77.4159" y2="137.745" gradientUnits="userSpaceOnUse">
<stop stop-color="#FF6E05"/>
<stop offset="1" stop-color="#F83C27"/>
</linearGradient>
<linearGradient id="paint8_linear_45_380" x1="5.28638" y1="56.8987" x2="12.0148" y2="57.1231" gradientUnits="userSpaceOnUse">
<stop stop-color="#FF6E05"/>
<stop offset="1" stop-color="#F83C27"/>
</linearGradient>
<linearGradient id="paint9_linear_45_380" x1="161.15" y1="64.0073" x2="166.445" y2="64.1647" gradientUnits="userSpaceOnUse">
<stop stop-color="#FF6E05"/>
<stop offset="1" stop-color="#F83C27"/>
</linearGradient>
<linearGradient id="paint10_linear_45_380" x1="146.14" y1="53.396" x2="152.89" y2="53.5379" gradientUnits="userSpaceOnUse">
<stop stop-color="#FF6E05"/>
<stop offset="1" stop-color="#F83C27"/>
</linearGradient>
<linearGradient id="paint11_linear_45_380" x1="28.54" y1="79.4897" x2="33.949" y2="79.6242" gradientUnits="userSpaceOnUse">
<stop stop-color="#FF6E05"/>
<stop offset="1" stop-color="#F83C27"/>
</linearGradient>
<linearGradient id="paint12_linear_45_380" x1="29.8401" y1="111.007" x2="34.5843" y2="111.106" gradientUnits="userSpaceOnUse">
<stop stop-color="#FF6E05"/>
<stop offset="1" stop-color="#F83C27"/>
</linearGradient>
<linearGradient id="paint13_linear_45_380" x1="42.03" y1="118.153" x2="47.7005" y2="118.33" gradientUnits="userSpaceOnUse">
<stop stop-color="#FF6E05"/>
<stop offset="1" stop-color="#F83C27"/>
</linearGradient>
<linearGradient id="paint14_linear_45_380" x1="65.926" y1="116.794" x2="73.1831" y2="117.08" gradientUnits="userSpaceOnUse">
<stop stop-color="#FF6E05"/>
<stop offset="1" stop-color="#F83C27"/>
</linearGradient>
<linearGradient id="paint15_linear_45_380" x1="145.67" y1="0.753418" x2="150.467" y2="0.847122" gradientUnits="userSpaceOnUse">
<stop stop-color="#FF6E05"/>
<stop offset="1" stop-color="#F83C27"/>
</linearGradient>
<linearGradient id="paint16_linear_45_380" x1="39.8101" y1="38.3081" x2="43.9928" y2="38.3965" gradientUnits="userSpaceOnUse">
<stop stop-color="#FF6E05"/>
<stop offset="1" stop-color="#F83C27"/>
</linearGradient>
<linearGradient id="paint17_linear_45_380" x1="104.58" y1="119.387" x2="109.489" y2="119.485" gradientUnits="userSpaceOnUse">
<stop stop-color="#FF6E05"/>
<stop offset="1" stop-color="#F83C27"/>
</linearGradient>
<linearGradient id="paint18_linear_45_380" x1="57.6399" y1="118.178" x2="61.8125" y2="118.264" gradientUnits="userSpaceOnUse">
<stop stop-color="#FF6E05"/>
<stop offset="1" stop-color="#F83C27"/>
</linearGradient>
<linearGradient id="paint19_linear_45_380" x1="0" y1="60.7864" x2="4.19169" y2="60.9008" gradientUnits="userSpaceOnUse">
<stop stop-color="#FF6E05"/>
<stop offset="1" stop-color="#F83C27"/>
</linearGradient>
<linearGradient id="paint20_linear_45_380" x1="51.0596" y1="105.425" x2="55.3448" y2="105.519" gradientUnits="userSpaceOnUse">
<stop stop-color="#FF6E05"/>
<stop offset="1" stop-color="#F83C27"/>
</linearGradient>
<linearGradient id="paint21_linear_45_380" x1="32.6299" y1="52.5317" x2="38.0933" y2="52.729" gradientUnits="userSpaceOnUse">
<stop stop-color="#FF6E05"/>
<stop offset="1" stop-color="#F83C27"/>
</linearGradient>
<linearGradient id="paint22_linear_45_380" x1="62.3201" y1="107.243" x2="66.6534" y2="107.328" gradientUnits="userSpaceOnUse">
<stop stop-color="#FF6E05"/>
<stop offset="1" stop-color="#F83C27"/>
</linearGradient>
<linearGradient id="paint23_linear_45_380" x1="33.8999" y1="83.9856" x2="39.3138" y2="84.2027" gradientUnits="userSpaceOnUse">
<stop stop-color="#FF6E05"/>
<stop offset="1" stop-color="#F83C27"/>
</linearGradient>
<linearGradient id="paint24_linear_45_380" x1="116.47" y1="115.571" x2="121.354" y2="115.746" gradientUnits="userSpaceOnUse">
<stop stop-color="#FF6E05"/>
<stop offset="1" stop-color="#F83C27"/>
</linearGradient>
<linearGradient id="paint25_linear_45_380" x1="127.77" y1="48.5525" x2="131.369" y2="48.6493" gradientUnits="userSpaceOnUse">
<stop stop-color="#FF6E05"/>
<stop offset="1" stop-color="#F83C27"/>
</linearGradient>
<linearGradient id="paint26_linear_45_380" x1="49.95" y1="97.5449" x2="54.9155" y2="97.7297" gradientUnits="userSpaceOnUse">
<stop stop-color="#FF6E05"/>
<stop offset="1" stop-color="#F83C27"/>
</linearGradient>
<linearGradient id="paint27_linear_45_380" x1="122.49" y1="117.545" x2="126.693" y2="117.643" gradientUnits="userSpaceOnUse">
<stop stop-color="#FF6E05"/>
<stop offset="1" stop-color="#F83C27"/>
</linearGradient>
<linearGradient id="paint28_linear_45_380" x1="73.0701" y1="126.038" x2="78.532" y2="126.269" gradientUnits="userSpaceOnUse">
<stop stop-color="#FF6E05"/>
<stop offset="1" stop-color="#F83C27"/>
</linearGradient>
<linearGradient id="paint29_linear_45_380" x1="74.25" y1="131.802" x2="77.3185" y2="131.855" gradientUnits="userSpaceOnUse">
<stop stop-color="#FF6E05"/>
<stop offset="1" stop-color="#F83C27"/>
</linearGradient>
<linearGradient id="paint30_linear_45_380" x1="110.51" y1="112.439" x2="114.133" y2="112.526" gradientUnits="userSpaceOnUse">
<stop stop-color="#FF6E05"/>
<stop offset="1" stop-color="#F83C27"/>
</linearGradient>
<linearGradient id="paint31_linear_45_380" x1="11.26" y1="83.4009" x2="14.3523" y2="83.4727" gradientUnits="userSpaceOnUse">
<stop stop-color="#FF6E05"/>
<stop offset="1" stop-color="#F83C27"/>
</linearGradient>
<linearGradient id="paint32_linear_45_380" x1="114.71" y1="120.069" x2="118.371" y2="120.166" gradientUnits="userSpaceOnUse">
<stop stop-color="#FF6E05"/>
<stop offset="1" stop-color="#F83C27"/>
</linearGradient>
<linearGradient id="paint33_linear_45_380" x1="107" y1="131.154" x2="109.966" y2="131.21" gradientUnits="userSpaceOnUse">
<stop stop-color="#FF6E05"/>
<stop offset="1" stop-color="#F83C27"/>
</linearGradient>
<linearGradient id="paint34_linear_45_380" x1="138.47" y1="71.0989" x2="141.547" y2="71.1836" gradientUnits="userSpaceOnUse">
<stop stop-color="#FF6E05"/>
<stop offset="1" stop-color="#F83C27"/>
</linearGradient>
<linearGradient id="paint35_linear_45_380" x1="138.48" y1="104.64" x2="142.13" y2="104.74" gradientUnits="userSpaceOnUse">
<stop stop-color="#FF6E05"/>
<stop offset="1" stop-color="#F83C27"/>
</linearGradient>
<linearGradient id="paint36_linear_45_380" x1="133.78" y1="103.173" x2="137.903" y2="103.32" gradientUnits="userSpaceOnUse">
<stop stop-color="#FF6E05"/>
<stop offset="1" stop-color="#F83C27"/>
</linearGradient>
<linearGradient id="paint37_linear_45_380" x1="39.8701" y1="64.6406" x2="42.8452" y2="64.7217" gradientUnits="userSpaceOnUse">
<stop stop-color="#FF6E05"/>
<stop offset="1" stop-color="#F83C27"/>
</linearGradient>
<linearGradient id="paint38_linear_45_380" x1="39.2134" y1="33.1121" x2="42.236" y2="33.1954" gradientUnits="userSpaceOnUse">
<stop stop-color="#FF6E05"/>
<stop offset="1" stop-color="#F83C27"/>
</linearGradient>
<linearGradient id="paint39_linear_45_380" x1="130.112" y1="113.655" x2="132.613" y2="113.702" gradientUnits="userSpaceOnUse">
<stop stop-color="#FF6E05"/>
<stop offset="1" stop-color="#F83C27"/>
</linearGradient>
<linearGradient id="paint40_linear_45_380" x1="150.896" y1="54.3284" x2="153.987" y2="54.4153" gradientUnits="userSpaceOnUse">
<stop stop-color="#FF6E05"/>
<stop offset="1" stop-color="#F83C27"/>
</linearGradient>
<linearGradient id="paint41_linear_45_380" x1="125.96" y1="121.988" x2="129.038" y2="122.057" gradientUnits="userSpaceOnUse">
<stop stop-color="#FF6E05"/>
<stop offset="1" stop-color="#F83C27"/>
</linearGradient>
<linearGradient id="paint42_linear_45_380" x1="104.559" y1="135.657" x2="107.024" y2="135.713" gradientUnits="userSpaceOnUse">
<stop stop-color="#FF6E05"/>
<stop offset="1" stop-color="#F83C27"/>
</linearGradient>
<linearGradient id="paint43_linear_45_380" x1="50.3999" y1="130.37" x2="52.962" y2="130.429" gradientUnits="userSpaceOnUse">
<stop stop-color="#FF6E05"/>
<stop offset="1" stop-color="#F83C27"/>
</linearGradient>
<linearGradient id="paint44_linear_45_380" x1="133.03" y1="60.1382" x2="136.148" y2="60.2257" gradientUnits="userSpaceOnUse">
<stop stop-color="#FF6E05"/>
<stop offset="1" stop-color="#F83C27"/>
</linearGradient>
<linearGradient id="paint45_linear_45_380" x1="47.5801" y1="43.4246" x2="49.9526" y2="43.477" gradientUnits="userSpaceOnUse">
<stop stop-color="#FF6E05"/>
<stop offset="1" stop-color="#F83C27"/>
</linearGradient>
<linearGradient id="paint46_linear_45_380" x1="68.3865" y1="113.656" x2="70.1086" y2="113.683" gradientUnits="userSpaceOnUse">
<stop stop-color="#FF6E05"/>
<stop offset="1" stop-color="#F83C27"/>
</linearGradient>
<linearGradient id="paint47_linear_45_380" x1="140.85" y1="32.9075" x2="142.681" y2="32.9359" gradientUnits="userSpaceOnUse">
<stop stop-color="#FF6E05"/>
<stop offset="1" stop-color="#F83C27"/>
</linearGradient>
<linearGradient id="paint48_linear_45_380" x1="45.7" y1="52.4067" x2="47.5842" y2="52.4465" gradientUnits="userSpaceOnUse">
<stop stop-color="#FF6E05"/>
<stop offset="1" stop-color="#F83C27"/>
</linearGradient>
<linearGradient id="paint49_linear_45_380" x1="130.134" y1="27.2224" x2="132.124" y2="27.2657" gradientUnits="userSpaceOnUse">
<stop stop-color="#FF6E05"/>
<stop offset="1" stop-color="#F83C27"/>
</linearGradient>
<linearGradient id="paint50_linear_45_380" x1="125.4" y1="127.937" x2="127.251" y2="127.97" gradientUnits="userSpaceOnUse">
<stop stop-color="#FF6E05"/>
<stop offset="1" stop-color="#F83C27"/>
</linearGradient>
<linearGradient id="paint51_linear_45_380" x1="125.39" y1="76.8975" x2="127.823" y2="76.9666" gradientUnits="userSpaceOnUse">
<stop stop-color="#FF6E05"/>
<stop offset="1" stop-color="#F83C27"/>
</linearGradient>
<linearGradient id="paint52_linear_45_380" x1="104.64" y1="116.18" x2="106.43" y2="116.217" gradientUnits="userSpaceOnUse">
<stop stop-color="#FF6E05"/>
<stop offset="1" stop-color="#F83C27"/>
</linearGradient>
<linearGradient id="paint53_linear_45_380" x1="55.25" y1="136.909" x2="57.6717" y2="136.996" gradientUnits="userSpaceOnUse">
<stop stop-color="#FF6E05"/>
<stop offset="1" stop-color="#F83C27"/>
</linearGradient>
<linearGradient id="paint54_linear_45_380" x1="44.5701" y1="20.6394" x2="46.9524" y2="20.7006" gradientUnits="userSpaceOnUse">
<stop stop-color="#FF6E05"/>
<stop offset="1" stop-color="#F83C27"/>
</linearGradient>
<linearGradient id="paint55_linear_45_380" x1="76.6201" y1="16.8645" x2="78.4298" y2="16.9117" gradientUnits="userSpaceOnUse">
<stop stop-color="#FF6E05"/>
<stop offset="1" stop-color="#F83C27"/>
</linearGradient>
<linearGradient id="paint56_linear_45_380" x1="87.3999" y1="123.336" x2="89.208" y2="123.384" gradientUnits="userSpaceOnUse">
<stop stop-color="#FF6E05"/>
<stop offset="1" stop-color="#F83C27"/>
</linearGradient>
<linearGradient id="paint57_linear_45_380" x1="35.52" y1="120.111" x2="38.0435" y2="120.207" gradientUnits="userSpaceOnUse">
<stop stop-color="#FF6E05"/>
<stop offset="1" stop-color="#F83C27"/>
</linearGradient>
<linearGradient id="paint58_linear_45_380" x1="42.3931" y1="94.3162" x2="44.031" y2="94.356" gradientUnits="userSpaceOnUse">
<stop stop-color="#FF6E05"/>
<stop offset="1" stop-color="#F83C27"/>
</linearGradient>
<linearGradient id="paint59_linear_45_380" x1="34.9937" y1="88.5173" x2="36.82" y2="88.5669" gradientUnits="userSpaceOnUse">
<stop stop-color="#FF6E05"/>
<stop offset="1" stop-color="#F83C27"/>
</linearGradient>
<linearGradient id="paint60_linear_45_380" x1="148.68" y1="43.6975" x2="150.96" y2="43.763" gradientUnits="userSpaceOnUse">
<stop stop-color="#FF6E05"/>
<stop offset="1" stop-color="#F83C27"/>
</linearGradient>
<linearGradient id="paint61_linear_45_380" x1="151.514" y1="71.7354" x2="153.452" y2="71.7913" gradientUnits="userSpaceOnUse">
<stop stop-color="#FF6E05"/>
<stop offset="1" stop-color="#F83C27"/>
</linearGradient>
<linearGradient id="paint62_linear_45_380" x1="116.92" y1="29.178" x2="118.822" y2="29.2189" gradientUnits="userSpaceOnUse">
<stop stop-color="#FF6E05"/>
<stop offset="1" stop-color="#F83C27"/>
</linearGradient>
<linearGradient id="paint63_linear_45_380" x1="39.7651" y1="81.377" x2="41.5808" y2="81.4252" gradientUnits="userSpaceOnUse">
<stop stop-color="#FF6E05"/>
<stop offset="1" stop-color="#F83C27"/>
</linearGradient>
<linearGradient id="paint64_linear_45_380" x1="54.0513" y1="1.44702" x2="55.9592" y2="1.50155" gradientUnits="userSpaceOnUse">
<stop stop-color="#FF6E05"/>
<stop offset="1" stop-color="#F83C27"/>
</linearGradient>
<linearGradient id="paint65_linear_45_380" x1="121.762" y1="40.1384" x2="123.67" y2="40.193" gradientUnits="userSpaceOnUse">
<stop stop-color="#FF6E05"/>
<stop offset="1" stop-color="#F83C27"/>
</linearGradient>
<linearGradient id="paint66_linear_45_380" x1="23.1101" y1="20.9805" x2="24.9297" y2="21.0342" gradientUnits="userSpaceOnUse">
<stop stop-color="#FF6E05"/>
<stop offset="1" stop-color="#F83C27"/>
</linearGradient>
<linearGradient id="paint67_linear_45_380" x1="94.3899" y1="117.624" x2="96.3576" y2="117.668" gradientUnits="userSpaceOnUse">
<stop stop-color="#FF6E05"/>
<stop offset="1" stop-color="#F83C27"/>
</linearGradient>
<linearGradient id="paint68_linear_45_380" x1="143.36" y1="48.3816" x2="145.006" y2="48.41" gradientUnits="userSpaceOnUse">
<stop stop-color="#FF6E05"/>
<stop offset="1" stop-color="#F83C27"/>
</linearGradient>
<linearGradient id="paint69_linear_45_380" x1="86.1299" y1="7.30249" x2="87.388" y2="7.32156" gradientUnits="userSpaceOnUse">
<stop stop-color="#FF6E05"/>
<stop offset="1" stop-color="#F83C27"/>
</linearGradient>
<linearGradient id="paint70_linear_45_380" x1="34.54" y1="42.6853" x2="36.2924" y2="42.7295" gradientUnits="userSpaceOnUse">
<stop stop-color="#FF6E05"/>
<stop offset="1" stop-color="#F83C27"/>
</linearGradient>
<linearGradient id="paint71_linear_45_380" x1="142.63" y1="95.51" x2="144.46" y2="95.5556" gradientUnits="userSpaceOnUse">
<stop stop-color="#FF6E05"/>
<stop offset="1" stop-color="#F83C27"/>
</linearGradient>
<linearGradient id="paint72_linear_45_380" x1="40.3733" y1="112.963" x2="42.2074" y2="113.011" gradientUnits="userSpaceOnUse">
<stop stop-color="#FF6E05"/>
<stop offset="1" stop-color="#F83C27"/>
</linearGradient>
<linearGradient id="paint73_linear_45_380" x1="112.94" y1="127.971" x2="114.862" y2="128.029" gradientUnits="userSpaceOnUse">
<stop stop-color="#FF6E05"/>
<stop offset="1" stop-color="#F83C27"/>
</linearGradient>
<linearGradient id="paint74_linear_45_380" x1="32.0601" y1="23.209" x2="33.7166" y2="23.248" gradientUnits="userSpaceOnUse">
<stop stop-color="#FF6E05"/>
<stop offset="1" stop-color="#F83C27"/>
</linearGradient>
<linearGradient id="paint75_linear_45_380" x1="144.42" y1="98.1704" x2="146.24" y2="98.2228" gradientUnits="userSpaceOnUse">
<stop stop-color="#FF6E05"/>
<stop offset="1" stop-color="#F83C27"/>
</linearGradient>
<linearGradient id="paint76_linear_45_380" x1="167.05" y1="67.8469" x2="168.828" y2="67.9129" gradientUnits="userSpaceOnUse">
<stop stop-color="#FF6E05"/>
<stop offset="1" stop-color="#F83C27"/>
</linearGradient>
<linearGradient id="paint77_linear_45_380" x1="40.9099" y1="51.1106" x2="42.9332" y2="51.1811" gradientUnits="userSpaceOnUse">
<stop stop-color="#FF6E05"/>
<stop offset="1" stop-color="#F83C27"/>
</linearGradient>
<linearGradient id="paint78_linear_45_380" x1="59.406" y1="33.0598" x2="61.0663" y2="33.1025" gradientUnits="userSpaceOnUse">
<stop stop-color="#FF6E05"/>
<stop offset="1" stop-color="#F83C27"/>
</linearGradient>
<linearGradient id="paint79_linear_45_380" x1="153.92" y1="65.8801" x2="155.698" y2="65.9461" gradientUnits="userSpaceOnUse">
<stop stop-color="#FF6E05"/>
<stop offset="1" stop-color="#F83C27"/>
</linearGradient>
<linearGradient id="paint80_linear_45_380" x1="98.6001" y1="127.185" x2="100.55" y2="127.272" gradientUnits="userSpaceOnUse">
<stop stop-color="#FF6E05"/>
<stop offset="1" stop-color="#F83C27"/>
</linearGradient>
<linearGradient id="paint81_linear_45_380" x1="139.12" y1="65.1636" x2="140.899" y2="65.2191" gradientUnits="userSpaceOnUse">
<stop stop-color="#FF6E05"/>
<stop offset="1" stop-color="#F83C27"/>
</linearGradient>
<linearGradient id="paint82_linear_45_380" x1="24.3184" y1="52.4067" x2="26.2317" y2="52.4619" gradientUnits="userSpaceOnUse">
<stop stop-color="#FF6E05"/>
<stop offset="1" stop-color="#F83C27"/>
</linearGradient>
<linearGradient id="paint83_linear_45_380" x1="27.9099" y1="61.5254" x2="29.7806" y2="61.5801" gradientUnits="userSpaceOnUse">
<stop stop-color="#FF6E05"/>
<stop offset="1" stop-color="#F83C27"/>
</linearGradient>
<linearGradient id="paint84_linear_45_380" x1="168.802" y1="69.3479" x2="170.569" y2="69.3994" gradientUnits="userSpaceOnUse">
<stop stop-color="#FF6E05"/>
<stop offset="1" stop-color="#F83C27"/>
</linearGradient>
<linearGradient id="paint85_linear_45_380" x1="163.398" y1="60.0928" x2="164.726" y2="60.1186" gradientUnits="userSpaceOnUse">
<stop stop-color="#FF6E05"/>
<stop offset="1" stop-color="#F83C27"/>
</linearGradient>
<linearGradient id="paint86_linear_45_380" x1="147.53" y1="49.8257" x2="148.926" y2="49.8466" gradientUnits="userSpaceOnUse">
<stop stop-color="#FF6E05"/>
<stop offset="1" stop-color="#F83C27"/>
</linearGradient>
<linearGradient id="paint87_linear_45_380" x1="61.9099" y1="31.0996" x2="63.5991" y2="31.1411" gradientUnits="userSpaceOnUse">
<stop stop-color="#FF6E05"/>
<stop offset="1" stop-color="#F83C27"/>
</linearGradient>
<linearGradient id="paint88_linear_45_380" x1="115.29" y1="27.8589" x2="117.129" y2="27.933" gradientUnits="userSpaceOnUse">
<stop stop-color="#FF6E05"/>
<stop offset="1" stop-color="#F83C27"/>
</linearGradient>
<linearGradient id="paint89_linear_45_380" x1="85.5159" y1="16.9214" x2="86.8704" y2="16.942" gradientUnits="userSpaceOnUse">
<stop stop-color="#FF6E05"/>
<stop offset="1" stop-color="#F83C27"/>
</linearGradient>
<linearGradient id="paint90_linear_45_380" x1="168.19" y1="95.0779" x2="169.423" y2="95.1019" gradientUnits="userSpaceOnUse">
<stop stop-color="#FF6E05"/>
<stop offset="1" stop-color="#F83C27"/>
</linearGradient>
<linearGradient id="paint91_linear_45_380" x1="74.22" y1="6.07446" x2="75.9479" y2="6.11892" gradientUnits="userSpaceOnUse">
<stop stop-color="#FF6E05"/>
<stop offset="1" stop-color="#F83C27"/>
</linearGradient>
<linearGradient id="paint92_linear_45_380" x1="67.79" y1="123.946" x2="69.4557" y2="124.004" gradientUnits="userSpaceOnUse">
<stop stop-color="#FF6E05"/>
<stop offset="1" stop-color="#F83C27"/>
</linearGradient>
<linearGradient id="paint93_linear_45_380" x1="168.89" y1="103.992" x2="170.589" y2="104.056" gradientUnits="userSpaceOnUse">
<stop stop-color="#FF6E05"/>
<stop offset="1" stop-color="#F83C27"/>
</linearGradient>
<linearGradient id="paint94_linear_45_380" x1="128.996" y1="55.7268" x2="130.289" y2="55.7534" gradientUnits="userSpaceOnUse">
<stop stop-color="#FF6E05"/>
<stop offset="1" stop-color="#F83C27"/>
</linearGradient>
<linearGradient id="paint95_linear_45_380" x1="147.36" y1="13.0369" x2="149.087" y2="13.1025" gradientUnits="userSpaceOnUse">
<stop stop-color="#FF6E05"/>
<stop offset="1" stop-color="#F83C27"/>
</linearGradient>
<linearGradient id="paint96_linear_45_380" x1="136.07" y1="62.7192" x2="137.358" y2="62.7554" gradientUnits="userSpaceOnUse">
<stop stop-color="#FF6E05"/>
<stop offset="1" stop-color="#F83C27"/>
</linearGradient>
<linearGradient id="paint97_linear_45_380" x1="15.98" y1="51.0195" x2="17.1866" y2="51.0485" gradientUnits="userSpaceOnUse">
<stop stop-color="#FF6E05"/>
<stop offset="1" stop-color="#F83C27"/>
</linearGradient>
<linearGradient id="paint98_linear_45_380" x1="128.93" y1="78.8416" x2="130.218" y2="78.8777" gradientUnits="userSpaceOnUse">
<stop stop-color="#FF6E05"/>
<stop offset="1" stop-color="#F83C27"/>
</linearGradient>
<linearGradient id="paint99_linear_45_380" x1="95.05" y1="115.532" x2="96.8481" y2="115.601" gradientUnits="userSpaceOnUse">
<stop stop-color="#FF6E05"/>
<stop offset="1" stop-color="#F83C27"/>
</linearGradient>
<linearGradient id="paint100_linear_45_380" x1="108.07" y1="115.657" x2="109.43" y2="115.699" gradientUnits="userSpaceOnUse">
<stop stop-color="#FF6E05"/>
<stop offset="1" stop-color="#F83C27"/>
</linearGradient>
<linearGradient id="paint101_linear_45_380" x1="17.1899" y1="82.7075" x2="18.4782" y2="82.7436" gradientUnits="userSpaceOnUse">
<stop stop-color="#FF6E05"/>
<stop offset="1" stop-color="#F83C27"/>
</linearGradient>
<linearGradient id="paint102_linear_45_380" x1="151.52" y1="51.1106" x2="152.808" y2="51.1467" gradientUnits="userSpaceOnUse">
<stop stop-color="#FF6E05"/>
<stop offset="1" stop-color="#F83C27"/>
</linearGradient>
<linearGradient id="paint103_linear_45_380" x1="120.68" y1="125.924" x2="122.335" y2="125.983" gradientUnits="userSpaceOnUse">
<stop stop-color="#FF6E05"/>
<stop offset="1" stop-color="#F83C27"/>
</linearGradient>
<linearGradient id="paint104_linear_45_380" x1="155.08" y1="88.4932" x2="156.327" y2="88.5261" gradientUnits="userSpaceOnUse">
<stop stop-color="#FF6E05"/>
<stop offset="1" stop-color="#F83C27"/>
</linearGradient>
<linearGradient id="paint105_linear_45_380" x1="171.11" y1="47.1995" x2="172.398" y2="47.2356" gradientUnits="userSpaceOnUse">
<stop stop-color="#FF6E05"/>
<stop offset="1" stop-color="#F83C27"/>
</linearGradient>
<linearGradient id="paint106_linear_45_380" x1="108.72" y1="30.4741" x2="110.008" y2="30.5102" gradientUnits="userSpaceOnUse">
<stop stop-color="#FF6E05"/>
<stop offset="1" stop-color="#F83C27"/>
</linearGradient>
<linearGradient id="paint107_linear_45_380" x1="156.27" y1="33.6804" x2="157.517" y2="33.7137" gradientUnits="userSpaceOnUse">
<stop stop-color="#FF6E05"/>
<stop offset="1" stop-color="#F83C27"/>
</linearGradient>
<linearGradient id="paint108_linear_45_380" x1="41.5701" y1="74.3391" x2="43.5102" y2="74.4248" gradientUnits="userSpaceOnUse">
<stop stop-color="#FF6E05"/>
<stop offset="1" stop-color="#F83C27"/>
</linearGradient>
<linearGradient id="paint109_linear_45_380" x1="85.54" y1="123.319" x2="86.7874" y2="123.352" gradientUnits="userSpaceOnUse">
<stop stop-color="#FF6E05"/>
<stop offset="1" stop-color="#F83C27"/>
</linearGradient>
<linearGradient id="paint110_linear_45_380" x1="77.8" y1="120.023" x2="79.0066" y2="120.052" gradientUnits="userSpaceOnUse">
<stop stop-color="#FF6E05"/>
<stop offset="1" stop-color="#F83C27"/>
</linearGradient>
<linearGradient id="paint111_linear_45_380" x1="155.56" y1="57.5117" x2="157.45" y2="57.5876" gradientUnits="userSpaceOnUse">
<stop stop-color="#FF6E05"/>
<stop offset="1" stop-color="#F83C27"/>
</linearGradient>
<linearGradient id="paint112_linear_45_380" x1="51.74" y1="113.599" x2="52.9466" y2="113.628" gradientUnits="userSpaceOnUse">
<stop stop-color="#FF6E05"/>
<stop offset="1" stop-color="#F83C27"/>
</linearGradient>
<linearGradient id="paint113_linear_45_380" x1="50.4697" y1="96.2488" x2="51.758" y2="96.2849" gradientUnits="userSpaceOnUse">
<stop stop-color="#FF6E05"/>
<stop offset="1" stop-color="#F83C27"/>
</linearGradient>
<linearGradient id="paint114_linear_45_380" x1="117.02" y1="132.325" x2="118.379" y2="132.367" gradientUnits="userSpaceOnUse">
<stop stop-color="#FF6E05"/>
<stop offset="1" stop-color="#F83C27"/>
</linearGradient>
<linearGradient id="paint115_linear_45_380" x1="92.6726" y1="16.3755" x2="94.2841" y2="16.4379" gradientUnits="userSpaceOnUse">
<stop stop-color="#FF6E05"/>
<stop offset="1" stop-color="#F83C27"/>
</linearGradient>
<linearGradient id="paint116_linear_45_380" x1="127.68" y1="96.7947" x2="129.132" y2="96.835" gradientUnits="userSpaceOnUse">
<stop stop-color="#FF6E05"/>
<stop offset="1" stop-color="#F83C27"/>
</linearGradient>
<linearGradient id="paint117_linear_45_380" x1="144.1" y1="12.0664" x2="144.936" y2="12.0748" gradientUnits="userSpaceOnUse">
<stop stop-color="#FF6E05"/>
<stop offset="1" stop-color="#F83C27"/>
</linearGradient>
<linearGradient id="paint118_linear_45_380" x1="29.093" y1="93.6111" x2="30.429" y2="93.6528" gradientUnits="userSpaceOnUse">
<stop stop-color="#FF6E05"/>
<stop offset="1" stop-color="#F83C27"/>
</linearGradient>
<linearGradient id="paint119_linear_45_380" x1="78.4229" y1="5.90405" x2="79.7588" y2="5.94576" gradientUnits="userSpaceOnUse">
<stop stop-color="#FF6E05"/>
<stop offset="1" stop-color="#F83C27"/>
</linearGradient>
<linearGradient id="paint120_linear_45_380" x1="172.33" y1="51.7332" x2="173.455" y2="51.7581" gradientUnits="userSpaceOnUse">
<stop stop-color="#FF6E05"/>
<stop offset="1" stop-color="#F83C27"/>
</linearGradient>
<linearGradient id="paint121_linear_45_380" x1="61.6899" y1="106.039" x2="63.0084" y2="106.081" gradientUnits="userSpaceOnUse">
<stop stop-color="#FF6E05"/>
<stop offset="1" stop-color="#F83C27"/>
</linearGradient>
<linearGradient id="paint122_linear_45_380" x1="73.0801" y1="11.0933" x2="74.2049" y2="11.1185" gradientUnits="userSpaceOnUse">
<stop stop-color="#FF6E05"/>
<stop offset="1" stop-color="#F83C27"/>
</linearGradient>
<linearGradient id="paint123_linear_45_380" x1="58.1899" y1="109.222" x2="59.4371" y2="109.259" gradientUnits="userSpaceOnUse">
<stop stop-color="#FF6E05"/>
<stop offset="1" stop-color="#F83C27"/>
</linearGradient>
<linearGradient id="paint124_linear_45_380" x1="153.88" y1="61.946" x2="155.046" y2="61.9738" gradientUnits="userSpaceOnUse">
<stop stop-color="#FF6E05"/>
<stop offset="1" stop-color="#F83C27"/>
</linearGradient>
<linearGradient id="paint125_linear_45_380" x1="149.12" y1="46.4717" x2="150.286" y2="46.4994" gradientUnits="userSpaceOnUse">
<stop stop-color="#FF6E05"/>
<stop offset="1" stop-color="#F83C27"/>
</linearGradient>
<linearGradient id="paint126_linear_45_380" x1="32.0913" y1="73.8154" x2="32.6656" y2="73.8244" gradientUnits="userSpaceOnUse">
<stop stop-color="#FF6E05"/>
<stop offset="1" stop-color="#F83C27"/>
</linearGradient>
<linearGradient id="paint127_linear_45_380" x1="139.071" y1="94.4639" x2="139.677" y2="94.4738" gradientUnits="userSpaceOnUse">
<stop stop-color="#FF6E05"/>
<stop offset="1" stop-color="#F83C27"/>
</linearGradient>
<linearGradient id="paint128_linear_45_380" x1="149.17" y1="96.8657" x2="150.384" y2="96.9269" gradientUnits="userSpaceOnUse">
<stop stop-color="#FF6E05"/>
<stop offset="1" stop-color="#F83C27"/>
</linearGradient>
<linearGradient id="paint129_linear_45_380" x1="172.327" y1="65.937" x2="172.987" y2="65.9467" gradientUnits="userSpaceOnUse">
<stop stop-color="#FF6E05"/>
<stop offset="1" stop-color="#F83C27"/>
</linearGradient>
<linearGradient id="paint130_linear_45_380" x1="172.327" y1="102.696" x2="172.987" y2="102.705" gradientUnits="userSpaceOnUse">
<stop stop-color="#FF6E05"/>
<stop offset="1" stop-color="#F83C27"/>
</linearGradient>
<linearGradient id="paint131_linear_45_380" x1="85.7324" y1="20.7983" x2="86.1947" y2="20.8033" gradientUnits="userSpaceOnUse">
<stop stop-color="#FF6E05"/>
<stop offset="1" stop-color="#F83C27"/>
</linearGradient>
<linearGradient id="paint132_linear_45_380" x1="122.37" y1="106.554" x2="123.554" y2="106.611" gradientUnits="userSpaceOnUse">
<stop stop-color="#FF6E05"/>
<stop offset="1" stop-color="#F83C27"/>
</linearGradient>
<linearGradient id="paint133_linear_45_380" x1="59.4099" y1="110.413" x2="60.5707" y2="110.493" gradientUnits="userSpaceOnUse">
<stop stop-color="#FF6E05"/>
<stop offset="1" stop-color="#F83C27"/>
</linearGradient>
<linearGradient id="paint134_linear_45_380" x1="60.5969" y1="20.23" x2="61.2024" y2="20.2399" gradientUnits="userSpaceOnUse">
<stop stop-color="#FF6E05"/>
<stop offset="1" stop-color="#F83C27"/>
</linearGradient>
<linearGradient id="paint135_linear_45_380" x1="86.1599" y1="19.4929" x2="86.7855" y2="19.5016" gradientUnits="userSpaceOnUse">
<stop stop-color="#FF6E05"/>
<stop offset="1" stop-color="#F83C27"/>
</linearGradient>
<linearGradient id="paint136_linear_45_380" x1="35.6399" y1="60.1069" x2="36.8543" y2="60.1681" gradientUnits="userSpaceOnUse">
<stop stop-color="#FF6E05"/>
<stop offset="1" stop-color="#F83C27"/>
</linearGradient>
<linearGradient id="paint137_linear_45_380" x1="53.5979" y1="116.898" x2="54.6004" y2="116.946" gradientUnits="userSpaceOnUse">
<stop stop-color="#FF6E05"/>
<stop offset="1" stop-color="#F83C27"/>
</linearGradient>
<linearGradient id="paint138_linear_45_380" x1="43.96" y1="58.8223" x2="45.1744" y2="58.8834" gradientUnits="userSpaceOnUse">
<stop stop-color="#FF6E05"/>
<stop offset="1" stop-color="#F83C27"/>
</linearGradient>
<linearGradient id="paint139_linear_45_380" x1="133.838" y1="120.775" x2="134.84" y2="120.823" gradientUnits="userSpaceOnUse">
<stop stop-color="#FF6E05"/>
<stop offset="1" stop-color="#F83C27"/>
</linearGradient>
<linearGradient id="paint140_linear_45_380" x1="121.28" y1="124.598" x2="122.441" y2="124.677" gradientUnits="userSpaceOnUse">
<stop stop-color="#FF6E05"/>
<stop offset="1" stop-color="#F83C27"/>
</linearGradient>
<linearGradient id="paint141_linear_45_380" x1="122.988" y1="127.209" x2="123.647" y2="127.219" gradientUnits="userSpaceOnUse">
<stop stop-color="#FF6E05"/>
<stop offset="1" stop-color="#F83C27"/>
</linearGradient>
<linearGradient id="paint142_linear_45_380" x1="153.92" y1="52.3755" x2="155.134" y2="52.4367" gradientUnits="userSpaceOnUse">
<stop stop-color="#FF6E05"/>
<stop offset="1" stop-color="#F83C27"/>
</linearGradient>
<linearGradient id="paint143_linear_45_380" x1="64.7913" y1="132.495" x2="65.3656" y2="132.504" gradientUnits="userSpaceOnUse">
<stop stop-color="#FF6E05"/>
<stop offset="1" stop-color="#F83C27"/>
</linearGradient>
<linearGradient id="paint144_linear_45_380" x1="59.4099" y1="134.273" x2="60.6243" y2="134.334" gradientUnits="userSpaceOnUse">
<stop stop-color="#FF6E05"/>
<stop offset="1" stop-color="#F83C27"/>
</linearGradient>
<linearGradient id="paint145_linear_45_380" x1="114.1" y1="134.273" x2="115.315" y2="134.334" gradientUnits="userSpaceOnUse">
<stop stop-color="#FF6E05"/>
<stop offset="1" stop-color="#F83C27"/>
</linearGradient>
<linearGradient id="paint146_linear_45_380" x1="84.3574" y1="140.103" x2="85.0172" y2="140.112" gradientUnits="userSpaceOnUse">
<stop stop-color="#FF6E05"/>
<stop offset="1" stop-color="#F83C27"/>
</linearGradient>
<linearGradient id="paint147_linear_45_380" x1="93.3213" y1="11.2583" x2="93.8956" y2="11.2672" gradientUnits="userSpaceOnUse">
<stop stop-color="#FF6E05"/>
<stop offset="1" stop-color="#F83C27"/>
</linearGradient>
<linearGradient id="paint148_linear_45_380" x1="30.96" y1="42.7483" x2="31.9661" y2="42.7967" gradientUnits="userSpaceOnUse">
<stop stop-color="#FF6E05"/>
<stop offset="1" stop-color="#F83C27"/>
</linearGradient>
<linearGradient id="paint149_linear_45_380" x1="39.8401" y1="43.9248" x2="41.0525" y2="44.0033" gradientUnits="userSpaceOnUse">
<stop stop-color="#FF6E05"/>
<stop offset="1" stop-color="#F83C27"/>
</linearGradient>
<linearGradient id="paint150_linear_45_380" x1="154.01" y1="42.7483" x2="155.012" y2="42.7964" gradientUnits="userSpaceOnUse">
<stop stop-color="#FF6E05"/>
<stop offset="1" stop-color="#F83C27"/>
</linearGradient>
<linearGradient id="paint151_linear_45_380" x1="50.0315" y1="46.5967" x2="50.3762" y2="46.602" gradientUnits="userSpaceOnUse">
<stop stop-color="#FF6E05"/>
<stop offset="1" stop-color="#F83C27"/>
</linearGradient>
<linearGradient id="paint152_linear_45_380" x1="146.332" y1="53.0435" x2="146.719" y2="53.0501" gradientUnits="userSpaceOnUse">
<stop stop-color="#FF6E05"/>
<stop offset="1" stop-color="#F83C27"/>
</linearGradient>
<linearGradient id="paint153_linear_45_380" x1="140.85" y1="58.3403" x2="141.453" y2="58.3659" gradientUnits="userSpaceOnUse">
<stop stop-color="#FF6E05"/>
<stop offset="1" stop-color="#F83C27"/>
</linearGradient>
<linearGradient id="paint154_linear_45_380" x1="54.7915" y1="29.178" x2="55.1786" y2="29.1847" gradientUnits="userSpaceOnUse">
<stop stop-color="#FF6E05"/>
<stop offset="1" stop-color="#F83C27"/>
</linearGradient>
<linearGradient id="paint155_linear_45_380" x1="169.38" y1="68.0161" x2="169.982" y2="68.0448" gradientUnits="userSpaceOnUse">
<stop stop-color="#FF6E05"/>
<stop offset="1" stop-color="#F83C27"/>
</linearGradient>
<linearGradient id="paint156_linear_45_380" x1="172.481" y1="68.5178" x2="172.869" y2="68.5245" gradientUnits="userSpaceOnUse">
<stop stop-color="#FF6E05"/>
<stop offset="1" stop-color="#F83C27"/>
</linearGradient>
<linearGradient id="paint157_linear_45_380" x1="35.1716" y1="28.5413" x2="35.5588" y2="28.548" gradientUnits="userSpaceOnUse">
<stop stop-color="#FF6E05"/>
<stop offset="1" stop-color="#F83C27"/>
</linearGradient>
<linearGradient id="paint158_linear_45_380" x1="169.38" y1="73.1226" x2="169.982" y2="73.1482" gradientUnits="userSpaceOnUse">
<stop stop-color="#FF6E05"/>
<stop offset="1" stop-color="#F83C27"/>
</linearGradient>
<linearGradient id="paint159_linear_45_380" x1="64.3015" y1="27.2454" x2="64.6886" y2="27.2521" gradientUnits="userSpaceOnUse">
<stop stop-color="#FF6E05"/>
<stop offset="1" stop-color="#F83C27"/>
</linearGradient>
<linearGradient id="paint160_linear_45_380" x1="131.76" y1="26.6541" x2="132.448" y2="26.6748" gradientUnits="userSpaceOnUse">
<stop stop-color="#FF6E05"/>
<stop offset="1" stop-color="#F83C27"/>
</linearGradient>
<linearGradient id="paint161_linear_45_380" x1="131.461" y1="25.3125" x2="131.849" y2="25.3192" gradientUnits="userSpaceOnUse">
<stop stop-color="#FF6E05"/>
<stop offset="1" stop-color="#F83C27"/>
</linearGradient>
<linearGradient id="paint162_linear_45_380" x1="102.21" y1="112.474" x2="102.813" y2="112.499" gradientUnits="userSpaceOnUse">
<stop stop-color="#FF6E05"/>
<stop offset="1" stop-color="#F83C27"/>
</linearGradient>
<linearGradient id="paint163_linear_45_380" x1="93.8899" y1="113.166" x2="94.4922" y2="113.194" gradientUnits="userSpaceOnUse">
<stop stop-color="#FF6E05"/>
<stop offset="1" stop-color="#F83C27"/>
</linearGradient>
<linearGradient id="paint164_linear_45_380" x1="76.6599" y1="117.679" x2="77.2622" y2="117.708" gradientUnits="userSpaceOnUse">
<stop stop-color="#FF6E05"/>
<stop offset="1" stop-color="#F83C27"/>
</linearGradient>
<linearGradient id="paint165_linear_45_380" x1="115.967" y1="118.75" x2="116.655" y2="118.771" gradientUnits="userSpaceOnUse">
<stop stop-color="#FF6E05"/>
<stop offset="1" stop-color="#F83C27"/>
</linearGradient>
<linearGradient id="paint166_linear_45_380" x1="57.7615" y1="120.751" x2="58.1486" y2="120.758" gradientUnits="userSpaceOnUse">
<stop stop-color="#FF6E05"/>
<stop offset="1" stop-color="#F83C27"/>
</linearGradient>
<linearGradient id="paint167_linear_45_380" x1="122.85" y1="123.4" x2="123.538" y2="123.421" gradientUnits="userSpaceOnUse">
<stop stop-color="#FF6E05"/>
<stop offset="1" stop-color="#F83C27"/>
</linearGradient>
<linearGradient id="paint168_linear_45_380" x1="122.419" y1="123.979" x2="123.025" y2="123.996" gradientUnits="userSpaceOnUse">
<stop stop-color="#FF6E05"/>
<stop offset="1" stop-color="#F83C27"/>
</linearGradient>
<linearGradient id="paint169_linear_45_380" x1="65.95" y1="124.719" x2="66.5525" y2="124.745" gradientUnits="userSpaceOnUse">
<stop stop-color="#FF6E05"/>
<stop offset="1" stop-color="#F83C27"/>
</linearGradient>
<linearGradient id="paint170_linear_45_380" x1="80.3" y1="127.846" x2="80.6872" y2="127.852" gradientUnits="userSpaceOnUse">
<stop stop-color="#FF6E05"/>
<stop offset="1" stop-color="#F83C27"/>
</linearGradient>
<linearGradient id="paint171_linear_45_380" x1="41.0771" y1="75.5444" x2="41.7649" y2="75.5652" gradientUnits="userSpaceOnUse">
<stop stop-color="#FF6E05"/>
<stop offset="1" stop-color="#F83C27"/>
</linearGradient>
</defs>
</svg>
